<?xml version="1.0" encoding="UTF-8" standalone="no"?>
<!-- Created with Inkscape (http://www.inkscape.org/) -->

<svg
   xmlns:dc="http://purl.org/dc/elements/1.1/"
   xmlns:cc="http://creativecommons.org/ns#"
   xmlns:rdf="http://www.w3.org/1999/02/22-rdf-syntax-ns#"
   xmlns:svg="http://www.w3.org/2000/svg"
   xmlns="http://www.w3.org/2000/svg"
   xmlns:sodipodi="http://sodipodi.sourceforge.net/DTD/sodipodi-0.dtd"
   xmlns:inkscape="http://www.inkscape.org/namespaces/inkscape"
   width="744.09448819"
   height="1052.3622047"
   id="svg2"
   version="1.1"
   inkscape:version="0.48.2 r9819"
   sodipodi:docname="16s.svg">
  <defs
     id="defs4" />
  <sodipodi:namedview
     id="base"
     pagecolor="#ffffff"
     bordercolor="#666666"
     borderopacity="1.0"
     inkscape:pageopacity="0.0"
     inkscape:pageshadow="2"
     inkscape:zoom="4.880449"
     inkscape:cx="210.8352"
     inkscape:cy="758.01243"
     inkscape:document-units="px"
     inkscape:current-layer="layer1"
     showgrid="false"
     inkscape:window-width="1440"
     inkscape:window-height="846"
     inkscape:window-x="0"
     inkscape:window-y="26"
     inkscape:window-maximized="1" />
  <metadata
     id="metadata7">
    <rdf:RDF>
      <cc:Work
         rdf:about="">
        <dc:format>image/svg+xml</dc:format>
        <dc:type
           rdf:resource="http://purl.org/dc/dcmitype/StillImage" />
        <dc:title></dc:title>
      </cc:Work>
    </rdf:RDF>
  </metadata>
  <g
     inkscape:label="Layer 1"
     inkscape:groupmode="layer"
     id="layer1">
    <path
       style="fill:#000000"
       d="m 219.68582,687.5748 c -0.6823,-1.09254 -1.24055,-4.4825 -1.24055,-7.53324 0,-3.91937 -0.72616,-6.97982 -2.47497,-10.43093 -1.36123,-2.68626 -2.76874,-6.7213 -3.12781,-8.96676 -0.12397,-5.60273 -3.09604,-4.08264 -7.95764,-4.08264 -6.42655,0 -7.38112,0.24046 -7.93958,2 -0.92258,2.90679 -6.5,2.84117 -6.5,-0.0765 0,-1.79886 -0.52692,-2.03842 -3.94131,-1.7919 -6.9985,0.50531 -10.13193,-4.91515 -5.71231,-9.88163 1.9212,-2.15893 2.66016,-2.25 18.2565,-2.25 13.44327,0 16.52602,-0.27176 17.82569,-1.57143 1.23328,-1.23324 1.57143,-3.88006 1.57143,-12.29997 0,-6.51627 0.30679,-8.88932 -1.55444,-10.55222 -4.99901,-4.46633 -1.29269,-12.32962 1.40584,-12.74168 1.45302,-0.22188 0.54378,-10.77179 0.5442,-15.03193 0.003,-6.23532 0.0635,-12.82671 -1.03363,-15.73131 -0.821,-2.17348 -5.56427,2.7158 -4.88075,4.8694 0.79355,2.50024 -3.01657,6.2619 -5.57102,5.50016 -0.91868,-0.27395 -1.97405,0.33532 -2.5,1.44325 -0.50061,1.05453 -2.9352,3.44457 -5.4102,5.3112 -2.75101,2.07479 -4.63441,4.34817 -4.84582,5.84921 -0.47852,3.39755 -1.98013,4.95535 -4.77662,4.95535 -2.61301,0 -17.68494,14.24239 -18.80437,17.7694 -1.40836,4.43736 -6.95667,6.89998 -11.21292,4.97686 -2.41338,-1.09045 -4.36027,-4.71564 -4.36027,-8.119 0,-2.41114 3.40775,-6.19044 6.11114,-6.77743 0.88613,-0.19241 7.59987,-6.10108 14.91943,-13.1304 10.15765,-9.75485 13.03144,-13.05742 12.13886,-13.95 -2.03252,-2.03252 -1.33802,-6.69175 1.40659,-9.43636 2.18919,-2.18919 3.19348,-2.4932 6.68791,-2.0245 3.86969,0.51904 4.3806,0.27586 8.67398,-4.12852 2.50915,-2.57403 5.61469,-5.87674 6.9012,-7.33936 5.6594,-4.60797 -3.7372,-5.08471 -10.24835,-8.68056 -9.90371,-4.73748 -12.80106,-6.58305 -13.58925,-8.65617 -1.26284,-3.32152 0.15849,-6.2341 3.69915,-7.58025 1.89471,-0.72037 3.00629,-0.61948 4.18919,0.38022 0.88558,0.74842 3.36307,2.16337 5.50553,3.14433 3.5625,1.63114 4.22521,1.26665 5.74671,-0.0217 2.09601,-1.77491 4.56622,-1.82808 6.02762,0.82349 0.68204,1.2375 1.1446,2.925 1.02791,3.75 -0.27357,1.9341 6.97359,5.01799 10.02427,4.26564 1.25296,-0.30901 3.09783,-1.41095 4.0997,-2.44877 1.76235,-1.82556 1.76078,-1.99107 -0.0484,-5.08877 -1.66744,-2.85505 -2.66544,-3.35481 -9.21438,-4.61422 -5.70808,-1.09771 -8.05251,-1.15634 -10.52262,-0.26313 -4.60818,1.66634 -6.02438,1.4508 -9.45948,-1.43964 -6.39198,-5.3785 -2.60393,-15.41111 5.81882,-15.41111 2.87569,0 4.38798,0.56671 5.4114,2.02785 1.03624,1.47943 3.55315,2.40033 9.3067,3.40516 4.57256,0.59151 7.66102,2.90808 8.71753,-1.49496 0.51448,-2.15186 -0.26337,-3.42698 -4.85932,-7.96584 -5.93387,-5.86016 -6.95674,-9.31844 -3.64312,-12.31722 6.21579,-3.45293 8.34448,0.015 12.12954,4.30078 3.09903,3.88596 3.26154,4.78669 7.53255,2.75 1.96736,-0.93818 5.1102,-1.70577 6.98408,-1.70577 1.87388,0 2.6066,-1.00815 3.60226,-1.93893 1.41028,-1.31774 1.32331,-35.14747 0.94722,-39.56107 -0.0469,-0.55 -0.56495,-0.17486 -1.1513,0.83365 -1.03054,1.7725 -1.13792,1.77028 -3.2196,-0.0666 -1.18442,-1.0452 -2.82849,-1.82638 -3.65349,-1.736 -0.825,0.0904 -2.0625,0.23286 -2.75,0.31664 -0.6875,0.0838 -1.25,0.81874 -1.25,1.63326 0,1.77286 -4.03164,2.96117 -6.92783,2.04196 -1.13969,-0.36173 -2.07217,-1.30236 -2.07217,-2.0903 0,-1.62949 0.23306,-1.59338 -10.5,-1.62705 -9.1927,-0.0288 -11.5,-1.29114 -11.5,-6.29157 0,-4.3858 2.37555,-5.32696 15,-5.94282 12.54649,-0.61205 11.74762,-0.61239 20.5,0.009 8.26406,0.58659 13.5651,-1.45044 14.52117,-5.58003 0.37579,-1.6232 1.29417,-2.75398 2.5458,-2.5 3.73352,0.75761 4.73992,-2.0259 7.70511,-3.64577 11.16927,-6.2144 -4.31489,-3.58031 -4.82764,-3.49486 -3.51663,0.58604 -5.29179,-1.54758 -10.11763,3.46767 -4.38812,4.56035 -11.81838,3.95766 -13.74928,0.14677 -1.96216,-3.87261 -4.40012,-3.26697 -10.90071,-3.05613 -7.81122,0.25316 -10.67682,-1.3351 -10.67682,-5.91782 0,-4.67319 3.03806,-6.35108 11.03023,-6.09186 6.25688,0.20293 7.35128,-0.0514 10.07144,-2.34024 4.10649,-3.45538 9.21557,-5.5663 13.71596,-0.0679 1.54042,1.88203 4.20914,2.5 6.28446,2.5 3.2811,0 3.20176,-0.11252 -8.14435,-11.55052 -9.96146,-10.04212 -11.82106,-11.50062 -14.23986,-11.16848 -3.17402,0.43586 -7.0136,-3.40683 -7.98767,-7.28785 -0.32253,-1.28506 0.86426,-2.67635 -2.10895,-1.96033 -2.81761,0.67855 -8.32955,-3.09717 -9.51827,-5.70613 -0.60665,-1.33144 -1.10299,-3.58641 -1.10299,-5.01106 0,-1.9275 -2.1737,-4.72997 -8.4955,-10.95294 -4.67253,-4.59948 -7.02809,-7.68727 -8.64546,-8.04702 -2.68992,-0.59831 -5.85904,-3.80517 -5.85904,-7.14441 0,-3.16772 2.8015,-7.05766 5.25,-7.28974 4.05806,-0.38465 8.75,1.76971 8.75,4.01768 0,2.18292 15.69585,19.17772 17.87231,18.84826 9.59285,-1.45209 12.0384,5.03775 12.3892,8.54264 0.29849,2.98226 -0.2004,2.82623 2.40997,2.07336 3.82762,-1.10394 9.14376,4.23819 8.40579,8.52383 -0.7515,4.3642 2.36168,5.74235 9.82762,13.20991 5.27731,5.27846 11.17011,11.35346 13.09511,13.5 4.68609,5.63328 3.48955,4.10512 3.80402,-1.98523 0.41553,-8.04761 0.07,-8.61197 -5.27264,-8.61197 -4.33998,0 -4.53138,-0.12326 -4.53138,-2.91821 0,-5.16504 0.84518,-6.08179 5.60699,-6.08179 5.37546,0.56068 4.39301,-0.98312 4.39301,-5.82569 0,-4.90285 -0.39142,-6.1934 -2.47098,-8.14705 -5.43067,-5.10184 -5.57208,-12.63075 -0.34897,-18.57955 2.43102,-2.76877 2.86574,-3.96275 2.33034,-6.40038 -0.36959,-1.68277 -0.092,-4.56247 0.63321,-6.5679 1.24904,-3.45417 5.20319,-3.85877 7.59166,-2.64399 4.01164,2.04032 3.09477,11.69252 3.92104,12.92019 1.03279,1.53453 7.74054,4.91321 6.97481,12.60184 -0.6711,6.73852 -5.49429,8.97356 -6.68791,11.94166 -1.40993,3.50598 -2.55282,35.76581 0.75283,36.87092 1.65997,0.55494 9.30132,-6.17822 12.55397,-8.61444 6.57503,-5.12005 10.6964,-5.96271 6.44252,-10.33835 -4.04486,-4.16065 -3.97175,-16.09507 -0.94933,-21.84147 2.45181,-4.66161 7.19747,-9.02542 12.00686,-11.04075 2.95187,-1.23695 3.25,-1.75645 3.25,-5.66325 0,-3.92358 -0.30455,-4.44659 -3.46744,-5.95487 -3.42338,-1.6325 -7.49134,-6.98069 -10.15052,-13.34499 -1.27966,-3.06266 -10.134,-12.42405 -12.21778,-11.11863 -1.3193,0.8265 -5.3649,-1.15688 -4.99348,-2.52615 0.22392,-0.82547 -1.19619,-0.56521 -1.61018,-0.42327 -2.2948,0.7868 -3.93941,-1.90665 -3.75,-4.06448 0.0923,-1.05175 -1.73554,-1.96922 -4.69593,-3.58047 -4.45912,-2.42693 -5.85702,-2.65893 -16.02149,-2.65893 -10.90809,0 -11.15943,0.0512 -12.27518,2.5 -1.3853,3.04038 -2.46701,3.1814 -3.3386,0.43524 -0.36043,-1.13561 -1.48394,-2.37311 -2.4967,-2.75 -1.01275,-0.37688 -9.29817,-0.55175 -18.41206,-0.38859 -15.01423,0.26878 -16.57069,0.46133 -16.57069,2.05 0,4.44228 -9.01856,6.84801 -10.40159,1.99038 -1.30847,-4.59576 -0.44407,-3.01114 -13.9811,-3.16645 -9.88424,0.71658 -15.43201,-1.55043 -16.12668,-4.71326 -0.86506,-3.93856 0.16082,-6.706 2.81052,-7.58178 1.20937,-0.39973 7.85015,-0.61027 14.7573,-0.46789 10.45331,0.21549 12.77871,-0.007 13.87244,-1.32438 1.66857,-2.0105 6.66968,-2.06655 7.43074,-0.0833 0.47221,1.23056 2.99409,1.5 14.0396,1.5 12.58574,0 13.5054,-0.13046 14.09877,-2 0.84204,-2.65305 5.08013,-2.65305 6.5,0 0.98901,1.84798 2.09382,2 14.53518,2 12.66168,3e-5 15.51839,1.4914 15.51839,-0.33381 0,-1.06754 -2.76403,-3.58661 -3.0499,-4.16389 -1.41102,-2.84938 1.00471,-5.43441 3.35497,-7.38495 2.04168,-1.69445 1.87141,-28.23748 0.33967,-29.38552 -2.98835,-2.23979 -1.3351,-5.91715 0.43557,-6.33508 1.06899,-0.2523 0.35985,-4.36206 0.34678,-10.9066 -0.0169,-8.43294 -0.27075,-9.86346 -1.97131,-11.10694 -2.03895,-0.65434 -6.09957,-0.0462 -9.00935,-0.19181 -23.16623,-1.30276 -28.4658,-1.26042 -31.38818,0.2508 -3.79433,1.96213 -8.37768,1.98883 -12.08749,0.0704 -1.88708,-0.97584 -4.36352,-1.29854 -7.20034,-0.93824 -6.86475,0.87187 -8.21361,0.65231 -10.07399,-1.63979 -2.31161,-2.84805 -2.22279,-7.1967 0.19162,-9.38171 2.03189,-1.83884 4.16272,-2.04812 10.16485,-0.99832 3.39076,0.59305 3.64202,0.45301 4.20089,-2.34133 1.90671,-9.53354 16.41692,-7.54147 18.27961,0.86433 0.34991,1.57906 4.32069,2.00096 7.60472,2.74262 2.52803,0.57091 25.45206,0.57509 29.63694,-2.07833 6.78014,-4.26471 7.11415,-4.31926 11.38772,-1.8597 2.89109,1.6639 4.30229,1.99923 5.09164,1.20988 1.64396,-1.64395 5.3938,-1.31152 6.10476,0.54121 0.4994,1.30141 1.5088,1.51232 4.96848,1.03812 3.72402,-0.51044 4.66342,-0.25272 6.60257,1.81141 1.72534,1.83655 2.09771,3.05634 1.57221,5.15012 -1.11797,4.45434 -3.20345,5.33217 -11.126,4.68321 -11.06098,-0.90603 -11.43001,-0.50184 -11.43001,12.5191 0,6.90099 0.42098,11.1858 1.17287,11.93769 0.89717,0.89717 0.89717,1.77799 0,3.74706 -1.84777,4.05541 -1.92153,14.463 0.49319,16.35451 1.82831,1.43218 1.70204,2.34006 0.0631,3.25724 -1.89133,1.05844 -0.34504,5.78159 -1.06288,13.61832 -0.22868,2.49652 0.57795,6.74643 0.17915,8.94643 -0.6778,3.7391 -0.48442,5.0176 2.96472,8.08491 2.67445,2.37837 4.37778,3.15638 6.18982,2.82726 3.13659,-0.56969 6,1.4524 6,4.23708 0,1.36358 1.34392,2.98305 3.75,4.5189 3.18064,2.08187 3.35829,3.14606 5.11881,-0.23544 0.75284,-1.44603 2.52729,-3.86952 3.94322,-5.38554 2.15681,-2.30927 2.63448,-3.90335 2.94471,-9.82701 0.33903,-6.47365 0.19515,-7.11641 -1.70416,-7.61309 -1.14217,-0.29868 -2.36249,-1.69009 -2.71536,-3.09605 -0.50376,-2.00715 -0.0713,-3.00771 2.02078,-4.67592 2.42957,-1.93727 2.53279,-2.29281 1.18364,-4.07694 -1.89977,-2.51231 -1.90546,-9.38948 -0.01,-11.89572 2.09229,-2.76625 1.81474,-8.83243 -0.61763,-13.49904 -3.65687,-7.01616 0.18309,-14.05983 7.66508,-14.05983 5.11652,0 8.69364,3.6358 8.69364,8.83625 0,2.49011 -0.66733,4.94229 -1.63637,6.01307 -2.037,2.25087 -2.11415,9.69089 -0.13636,13.15068 0.78602,1.375 1.42913,3.85 1.42913,5.5 0,1.65 -0.64311,4.125 -1.42913,5.5 -1.01606,1.77741 -1.43937,6.00063 -1.46456,14.61133 1.05215,4.49191 -3.28071,12.73171 2.32735,11.65966 2.9743,-0.56858 9.85391,2.87603 11.82631,5.9214 3.92931,6.06685 2.76901,13.02271 -2.97389,17.82811 -9.0968,5.68361 4.67947,3.40981 8.82205,3.29918 12.16885,1.48632 13.84272,-3.69585 25.24239,-15.31968 7.82122,-7.975 14.70524,-15.3775 15.29784,-16.45 1.47592,-2.67118 8.10115,-2.71003 10.03972,-0.0589 1.91777,2.6227 1.72921,7.22228 -0.36717,8.95677 -4.19986,6.16511 -35.39639,26.87079 -27.49843,30.53497 1.64288,0.74854 3.35293,2.05723 3.78737,4.37301 0.35576,1.89636 1.95504,4.70126 3.55395,6.23311 3.59833,3.44742 3.77916,7.24313 0.49219,10.33109 -2.95735,2.77828 -5.82487,2.13682 -9.39046,-2.10063 -1.36096,-1.61741 -4.42137,-3.8559 -6.8009,-4.97441 -2.37953,-1.11851 -6.32312,-3.79122 -8.76352,-5.93935 -4.31793,-3.80077 -4.63892,-3.90566 -11.95186,-3.90566 -10.79274,0 -10.67834,-0.0926 -10.67834,8.63911 0,9.33231 1.88441,14.36089 5.38159,14.36089 1.5843,0 2.70778,-0.70623 3.10265,-1.95035 0.70936,-2.235 6.39431,-6.04965 9.01576,-6.04965 2.68645,0 8.31379,3.83794 9.05596,6.17632 0.60255,1.89847 1.23637,2.03572 7.37318,1.59664 7.88265,-0.564 11.07086,1.13417 11.07086,5.89679 0,4.26326 -3.13989,5.78421 -11.22937,5.43944 -5.58559,-0.23806 -7.18072,0.0682 -9.38486,1.802 -3.51502,2.76492 -10.20125,2.80839 -13.65864,0.0888 -2.65324,-2.08703 -6.72713,-2.70817 -6.72713,-1.02567 0,0.53588 1.4625,1.71514 3.25,2.62059 1.7875,0.90545 5.83559,3.70653 9.48509,4.8475 2.61912,0.81884 26.60617,3.90462 28.41778,2.52622 1.73885,-1.32304 3.91525,-2.03433 6.00842,-0.56821 2.85212,1.9977 20.08251,1.38442 20.94975,0.53031 1.89163,-1.86297 4.76386,-1.37091 6.38896,-0.33277 3.85858,2.46498 18.12726,-4.48534 31.91621,-13.84115 1.93415,-1.23319 0.55082,-37.33616 -1.51523,-35.13753 -1.06761,1.2864 -2.49969,1.49851 -6.96573,1.03171 -5.20909,-0.54446 -5.81688,-0.38401 -8.27854,2.18541 -1.5499,1.61775 -2.65671,3.91054 -2.65671,5.50347 0,3.23061 -2.23125,6.92638 -5.45818,9.04074 -3.06539,2.00852 -8.84619,0.48646 -12.19029,-3.20965 -5.0198,-5.54817 -0.74462,-16.17096 6.50807,-16.17096 4.04478,0 8.75358,-5.38917 9.42613,-10.7881 0.9792,-7.86052 5.78604,-12.45691 13.19518,-12.61748 3.31831,-0.0719 4.97243,0.48356 6.93809,2.32989 4.3279,5.46874 2.32846,-2.86115 2.32846,-6.25 0,-8.42761 -0.87456,-11.28838 -2.16664,-6.1403 -0.3498,1.3937 -1.74675,3.0401 -3.10435,3.65866 -3.58942,1.63546 -6.86017,-1.44077 -6.15462,-5.78859 0.47567,-2.93121 -0.0971,-3.61861 -9.50629,-11.40857 -11.81391,-10.97315 -9.94915,-8.00777 -28.02612,-8.61306 -11.66761,-0.20963 -18.5026,-0.72943 -19.40155,-1.47549 -1.83345,-1.52163 -1.77854,-7.33786 0.0839,-8.88352 1.02418,-0.85 5.73391,-1.17851 15.48689,-1.08025 8.38352,0.0845 14.82404,-0.29171 16.02824,-0.93617 1.75364,-0.93854 2.01308,-2.08389 2.01308,-8.88722 0,-8.50274 1.39292,-11.1198 5.91845,-11.1198 4.54224,0 6.0118,3.53239 6.04828,14.53824 0.6363,10.37154 -1.22716,8.98462 4.54632,13.81065 2.89526,2.42014 5.31489,3.66106 6.75,3.46176 1.73784,-0.24133 2.30978,0.24718 2.56326,2.18935 0.39087,2.99492 3.8101,5.94699 6.92372,5.97776 2.70753,0.0268 2.98778,-2.47942 0.65042,-5.81647 -1.46612,-2.09317 -1.46612,-2.43121 0,-4.05125 2.38232,-2.63244 2.12214,-8.74012 -0.40042,-9.39979 -2.86469,-0.74913 -2.8098,-6.26522 0.0698,-7.01826 2.01049,-0.52576 2.05546,-0.99515 1.56805,-16.36664 -0.27597,-8.70394 -0.86991,-18.52535 -1.31983,-21.82535 -0.64774,-7.73516 -0.92907,-6.00454 -8.31805,-6.30649 -4.125,-0.16857 -9.00093,-0.0285 -10.8354,0.31133 -4.3536,0.2854 -3.17208,1.80533 -2.6481,5.61515 0.55361,4.02519 0.34554,5.37497 -1.06958,6.93866 -1.99565,2.20517 -7.87047,2.64964 -9.1379,0.69135 -0.66751,-1.03136 -1.23074,-12.20119 -2.27607,-45.13881 -0.0504,-1.58885 0.66628,-3.72635 1.59267,-4.75 2.17329,-2.40145 7.55262,-2.42671 9.70752,-0.0456 2.11521,2.33728 3.21967,7.72469 1.7676,8.62212 -0.60541,0.37416 -1.10074,2.68987 -1.10074,5.14603 0,3.82986 0.352,4.59956 2.47207,5.40561 1.35964,0.51693 2.74979,2.04641 3.08923,3.39884 0.58716,2.33944 0.9511,2.44934 7.48756,2.26113 5.90468,-0.17002 7.26263,-0.56883 9.66077,-2.83725 2.47767,-2.34364 5.31077,-3.26746 8.96345,-2.92279 0.64519,0.0609 2.5399,1.47752 4.21047,3.14808 5.004,5.97995 17.52442,2.70868 25.32692,2.53164 12.25924,-0.27817 24.36096,-0.0612 27.11096,-0.17251 2.97262,-0.48412 8.32512,0.61941 10.14955,-1.3051 0.92065,-2.90069 5.51065,-2.87769 6.2714,0.0314 0.51266,1.96041 1.02203,2.07627 6.65638,1.51411 6.63843,-0.66233 8.1359,-0.14304 10.02921,3.47795 1.00769,1.92723 0.98834,2.9073 -0.10079,5.10544 -2.00015,4.03679 -3.85554,4.52621 -14.68506,3.87366 -8.36116,-0.50382 -10.25903,-0.32931 -12.5,1.1494 -3.39785,2.24208 -9.31861,2.24531 -12.07598,0.007 -1.77797,-1.44354 -3.7675,-1.6954 -11.36079,-1.43818 -15.51525,-0.79463 -9.11604,6.93742 -8.91299,22 0.1608,11.9285 0.043,22.68769 -0.26181,23.90932 -0.30479,1.22162 -1.47524,2.71408 -2.60101,3.31657 -2.63308,1.40918 -7.56213,0.33095 -8.45171,-1.84882 -0.37908,-0.92889 -0.61509,-7.85365 -0.52446,-15.38835 0.13106,-10.89619 -0.19899,-14.72368 -1.61296,-18.70478 -1.45305,-4.09117 -1.58053,-5.74414 -0.698,-9.05055 2.03675,-5.8898 0.0721,-4.04522 -5.28134,-4.04522 -5.25354,0.26702 -6.53964,-0.8379 -6.36107,3.34912 0,1.84202 -0.28338,6.7015 -0.62973,10.79884 -0.51789,6.12663 -0.3408,7.73865 0.99713,9.07658 1.59712,1.59713 1.2814,4.77546 -0.47439,4.77546 -1.83318,0 -0.89666,4.86406 1.05584,5.48376 1.07186,0.3402 2.22179,1.47853 2.5554,2.52962 0.75462,2.3776 -1.0777,5.98662 -3.03943,5.98662 -1.21088,0 -1.46482,2.24105 -1.46482,12.92742 0,12.91172 0.003,12.93005 2.75,15.08997 3.80469,2.99194 3.87685,6.45928 0.19113,9.18425 -2.90036,2.14433 -2.94113,2.30785 -2.94113,11.79529 0,6.91113 0.41351,10.16753 1.4682,11.56194 1.86706,2.46848 2.64061,7.06637 0.78941,10.30471 -1.88361,3.29504 -2.61218,4.72817 -0.18472,6.9897 2.066,1.92477 2.06626,1.93585 0.0788,3.32789 -1.85035,1.29604 -1.98172,2.43885 -1.82289,15.85776 0.38708,8.51307 -2.16243,16.11344 4.1712,15.14711 2.2,0.37732 5.19326,0.98382 6.65169,1.34778 2.19197,0.54702 3.94266,-0.30991 10.09801,-4.9428 6.1941,-4.66206 7.46034,-6.0974 7.52965,-8.53523 0.18658,-6.56221 5.49645,-10.69184 12.27503,-9.5466 3.26842,0.55219 4.2299,0.28117 6.15931,-1.73621 1.25747,-1.3148 2.73631,-3.18563 3.28631,-4.1574 0.55,-0.97177 2.55968,-2.08563 4.46597,-2.47525 2.9333,-0.59953 3.57337,-1.23355 4.16483,-4.12551 0.87107,-4.25904 3.47066,-6.27189 7.3692,-5.70595 2.2201,0.32229 3.94729,-0.31117 6.6439,-2.43668 4.5573,-3.59214 8.25034,-3.72634 10.44328,-0.37948 2.27688,3.47496 1.17051,6.48895 -3.61555,9.84954 -3.0387,2.13366 -3.89821,3.31371 -3.44764,4.73335 0.95984,3.02419 -3.92546,7.29411 -7.5223,6.57474 -2.65103,-0.53021 -2.85941,-0.35105 -2.78144,2.39126 0.0463,1.63043 -0.72898,3.86306 -1.72297,4.96141 -1.95444,2.15962 -6.43363,2.66064 -8.17938,0.91489 -1.96755,-1.96755 -5.3179,1.11925 -5.3179,4.89957 0,2.35424 -0.86047,4.19685 -2.92308,6.25945 -2.51887,2.51887 -3.68012,2.92308 -8.39776,2.92308 -5.10605,0 -5.94012,0.36418 -12.38682,5.40837 -6.58475,5.15222 -6.89224,5.57878 -6.49211,9.00619 0.70665,6.05292 -0.66224,10.35832 -4.59683,14.4579 -3.53593,3.68419 -3.64034,3.98629 -2.30896,6.68063 0.76694,1.55207 1.48446,5.10007 1.59448,7.88443 0.294,7.44072 5.39301,24.3535 8.18365,27.14414 3.12029,3.12029 3.12629,8.31922 0.013,11.24403 -2.87819,2.70391 -8.27131,2.83269 -11.59582,0.27688 -1.9986,-1.53648 -2.39227,-2.68556 -2.30489,-6.72776 0.11976,-5.54026 -5.19138,-26.05687 -7.36898,-28.46592 -0.79104,-0.87511 -1.98694,-3.90098 -2.65757,-6.72416 -0.96892,-4.07895 -1.7803,-5.36542 -3.9511,-6.26459 -4.37531,-1.81232 -8.41794,-6.32313 -10.3596,-11.55937 -0.99135,-2.67342 -1.89089,-4.99156 -1.99898,-5.15141 -0.36882,-0.54537 -7.44861,3.98556 -7.44861,4.76697 0,0.42833 0.6833,1.34587 1.51845,2.03899 2.27404,1.88728 4.28785,6.87529 5.04045,12.48468 0.80538,6.00281 9.16404,21.48903 14.10625,26.13487 2.3237,2.18436 3.33485,4.03301 3.33485,6.09699 0,6.02596 -6.30367,9.71383 -11.77111,6.8865 -3.2348,-1.67278 -4.22889,-3.3878 -4.22889,-7.29578 0,-1.38261 -0.82265,-3.70831 -1.82811,-5.16821 -1.00546,-1.4599 -3.55276,-5.80437 -5.66068,-9.65437 -2.10792,-3.85 -4.53875,-7.41777 -5.40185,-7.92838 -4.71304,-2.78823 -9.39347,-8.50301 -11.10525,-13.55947 -1.01666,-3.00315 -2.40521,-5.64585 -3.08565,-5.87266 -0.76969,-0.25657 -1.0135,0.17045 -0.64525,1.1301 0.62963,1.64085 -2.09612,4.73041 -4.1734,4.73041 -1.73897,0 -4.09983,-2.55016 -4.09983,-4.42857 0,-1.35952 -2.04587,-1.57143 -15.17126,-1.57143 -13.00131,0 -15.44574,0.2484 -17.09032,1.73672 -1.82209,1.64897 -1.98323,1.64897 -3.18898,0 -1.48181,-2.02649 -3.45396,-2.2812 -3.76863,-0.48672 -0.12056,0.6875 -0.28487,17.9 -0.36515,38.25 -0.0803,20.35 -0.16904,38.125 -0.19726,39.5 -0.0282,1.375 0.15377,12.11451 0.40442,23.86559 0.38577,18.08577 0.21943,21.72622 -1.08355,23.71482 -1.94981,2.97578 -1.98819,9.44381 -0.0711,11.97846 1.79004,2.36665 2.15283,20.4201 0.44467,22.12826 -0.78285,0.78285 -0.78285,1.2752 0,1.75902 0.59792,0.36954 1.08713,3.40822 1.08713,6.75262 0,4.61933 -0.41739,6.38595 -1.73672,7.35067 -1.62272,1.18656 -1.62729,1.39085 -0.0696,3.11205 0.9169,1.01317 1.81093,3.86243 1.98672,6.33169 0.24427,3.43109 0.75726,4.57265 2.17585,4.84197 1.02092,0.19383 2.32553,-0.1169 2.89912,-0.69049 0.46068,-0.46068 -0.59615,-9.76156 1.98222,-10.89482 2.72539,-1.19787 -0.58052,-2.04408 -0.61873,-7.03207 -0.15509,-20.24363 -0.44488,-31.62801 0.8458,-33.47073 1.96536,-2.80595 1.96367,-8.01812 -0.004,-11.82286 -1.29009,-2.49476 -1.46127,-6.33069 -1.05766,-23.70034 0.61226,-26.34937 0.61216,-24.3929 0.002,-40.08204 -0.43346,-11.14823 -0.26405,-13.64035 1.02402,-15.06366 1.14638,-1.26673 1.25303,-1.99583 0.41458,-2.83428 -0.62086,-0.62086 -1.27588,-4.03688 -1.45561,-7.59116 -0.25183,-4.98051 0.0101,-6.5916 1.1425,-7.02612 1.77261,-0.68022 1.9077,-2.78813 0.28282,-4.41301 -2.08396,-2.08396 -1.93784,-5.45239 0.34178,-7.87893 2.92431,-3.11279 6.91163,-2.99493 10.20829,0.30172 2.25373,2.25374 2.63636,3.49416 2.63636,8.54665 -1.10774,10.41284 2.70565,5.50179 16.25,5.52379 8.9375,-0.21257 17.38819,-0.71703 18.77931,-1.12103 2.21635,-0.64366 2.74223,-0.28807 4.25,2.87377 2.15118,4.51107 2.14777,5.61821 -0.0293,9.49328 -1.37966,2.45571 -2.17325,2.96058 -3.75,2.38567 -1.1,-0.40108 -12.74221,-0.65492 -19.00254,-0.63752 -19.5437,0.0543 -16.49746,2.04837 -16.49746,20.25344 2.8e-4,17.57797 -0.23522,21.04559 -1.42904,21.04559 -1.19273,0 -1.44638,-3.64774 -1.53238,-22.03776 -1.39866,-22.29259 -0.92868,-22.04651 19.65352,-21.91891 19.13218,0.11509 19.78606,0.0528 20.68901,-1.97078 1.36684,-3.0632 -0.84004,-7.55664 -3.15407,-6.42202 -0.94972,0.46566 -9.73104,0.97955 -19.51405,1.14197 -14.67128,-0.27095 -17.94828,6.67481 -17.60861,-6.78496 0.14899,-5.90395 -0.13556,-7.31817 -1.71271,-8.51211 -2.46466,-1.8658 -4.84025,-1.86444 -6.39064,0.004 -0.99543,1.19941 -0.97224,2.14897 0.11598,4.75 1.75462,4.19379 1.77756,4.92907 0.21255,6.8121 -1.54137,1.85459 -1.08574,11.18665 0.57318,11.73962 1.61547,0.53849 1.33504,3.81882 -0.48177,5.63564 -1.3423,1.34229 -1.49284,3.56665 -1.00311,14.82142 0.31692,7.28317 0.51224,14.81712 0.43405,16.74212 -0.66532,16.38029 -0.014,44.19237 1.1375,48.57345 1.17484,4.46983 1.13584,5.46967 -0.32781,8.40364 -1.35166,2.70946 -1.66132,6.48248 -1.66132,20.24229 0,9.3928 0.26389,17.09897 1.12897,17.90179 2.43805,2.26257 0.54401,2.96291 -0.12627,3.37716 -0.55148,0.34084 -1.0027,2.9984 -1.0027,5.9057 0,5.9418 -1.90603,8.59564 -6.17375,8.59564 -3.60028,0 -5.82625,-2.95017 -5.82625,-7.72175 0,-2.6902 -0.50713,-4.25888 -1.5,-4.63988 -1.97229,-0.75684 -1.97229,-6.24316 0,-7 2.08533,-0.80021 2.06559,-9.92408 -0.0252,-11.65931 -1.36697,-1.13448 -1.36697,-1.4407 0,-2.95118 2.05041,-2.26567 2.06863,-17.45333 0.0252,-21.02788 -1.88447,-3.29653 -1.86248,-8.05359 0.0594,-12.85689 1.293,-3.23153 1.48137,-7.37797 1.10262,-24.27024 -0.25122,-11.20508 -0.43803,-21.04787 -0.41512,-21.87287 0.0229,-0.825 0.0892,-18.6 0.14738,-39.5 0.0581,-20.9 0.46511,-38.98594 0.90437,-40.19098 0.54976,-1.50818 2.17446,-4.19309 7.21791,-0.63638 2.14543,1.51299 0.4436,-1.60863 6.80108,-1.63143 6.56757,1.20562 28.72316,-3.71116 30.27818,2.48448 0.75282,2.9995 2.76275,2.77875 3.22373,-0.35407 0.24216,-1.64569 1.00928,-2.17167 3.16729,-2.17167 2.48543,0 3.07002,0.60433 4.59485,4.75 2.20106,5.98421 5.78054,10.89155 9.66955,13.25659 1.66077,1.00998 4.23841,4.00916 5.72809,6.66486 1.48968,2.6557 4.35374,7.68428 6.36459,11.17462 2.01084,3.49033 3.65608,7.23242 3.65608,8.31574 0,3.13668 1.89763,5.83819 4.10093,5.83819 6.47069,0 7.84028,-5.40853 2.64907,-10.46127 -1.7875,-1.73981 -4.15,-4.93527 -5.25,-7.10102 -1.1,-2.16574 -3.4625,-6.30895 -5.25,-9.20713 -1.7875,-2.89818 -3.25251,-6.49818 -3.25558,-8 -0.009,-4.48249 -1.912,-9.97918 -4.53285,-13.09388 -1.35386,-1.60893 -2.46157,-3.38509 -2.46157,-3.94698 0,-1.82826 10.85191,-9.18967 13.54705,-9.18967 0.24912,0 0.45546,1.0125 0.45853,2.25 0.0189,7.63269 4.03885,13.47675 11.60831,16.87583 3.50342,1.57321 4.04399,2.21304 3.6428,4.31169 -0.29018,1.51801 0.72584,4.92125 2.64581,8.86233 3.66566,7.52445 7.38686,22.29272 7.24368,28.74793 -0.0879,3.96454 0.25573,4.75842 2.67972,6.1903 2.28888,1.35208 3.21325,1.42802 5.22734,0.42942 3.26867,-1.62061 3.90577,-6.88237 1.07353,-8.86615 -1.09209,-0.76493 -2.30443,-2.72066 -2.69408,-4.34607 -1.86451,-3.48798 -2.20146,-7.59634 -3.03121,-10.70528 -0.77962,-2.8875 -1.87271,-8.36116 -2.42909,-12.16369 -0.55638,-3.80252 -1.89658,-8.34561 -2.97823,-10.09575 -1.77559,-2.78023 -2.58703,-2.89941 0.41655,-4.26792 1.31074,-0.59722 3.61538,-2.70135 5.12141,-4.67586 2.48888,-3.26309 2.69229,-4.16235 2.23372,-9.87511 -0.4775,-5.94867 -0.36429,-6.3724 2.11483,-7.91586 4.21108,-2.62176 11.06702,-7.62916 13.32235,-9.73033 1.61238,-1.50215 2.51817,-1.70988 3.99938,-0.91716 2.45644,1.31465 7.12658,0.29063 9.21896,-2.02143 0.89581,-0.98985 1.69071,-3.44791 1.76644,-5.46234 0.11379,-3.02689 0.73618,-4.03248 3.58584,-5.79367 3.26311,-2.01671 3.5971,-2.04309 6.22361,-0.49158 2.41312,1.42547 2.93238,1.45041 3.97755,0.19106 0.70324,-0.84735 0.94123,-2.6362 0.57347,-4.31058 -0.52256,-2.3792 -0.217,-3.04969 1.8109,-3.97366 1.34174,-0.61134 3.38722,-0.8637 4.5455,-0.5608 2.60508,0.68125 5.09533,-1.25503 5.09533,-3.96184 0,-1.13738 1.78414,-3.55878 4.05335,-5.50115 7.17348,-6.14022 3.31572,-11.26452 -4.03387,-5.35822 -3.15304,2.53384 -4.39206,2.94969 -7.35574,2.46875 -3.29754,-0.53512 -3.61138,-0.36357 -4.1974,2.29439 -1.29275,5.86333 -0.98327,5.55085 -6.75171,6.81716 -1.73998,0.38196 -3.14887,1.56752 -3.75388,3.15883 -1.81293,4.76836 -3.84681,5.91505 -10.06882,5.67674 -7.3019,-0.27968 -10.07487,1.65811 -10.41613,7.27897 -0.20252,3.33569 -0.87732,4.38056 -4.60654,7.13285 -2.40309,1.77356 -6.42185,4.78435 -8.93058,6.69064 -3.84054,3.55527 -4.54927,3.47144 -9,1.46406 -2.86225,-1.29094 -5.61029,-1.81627 -7.73753,-1.47916 -5.47353,-0.3033 -3.53314,-16.51967 -3.40133,-22.05109 0.13781,-5.78355 -0.48663,-8.88051 1.82207,-10.94486 2.73319,-2.44393 -1.00628,-3.00279 -1.13218,-4.68973 -0.20905,-2.80127 0.15421,-5.39199 1.22556,-7.14787 0.26702,-0.43763 2.6821,-4.32789 0.11423,-6.96798 -2.82099,-2.90033 -1.75311,-9.26637 -1.90841,-12.91733 0.2934,-5.37734 -2.32422,-10.8438 2.52405,-14.02052 3.20255,-2.09839 3.21413,-3.32161 0.055,-5.80662 -2.47366,-1.94578 -2.5,-2.12907 -2.5,-17.39392 -1.4e-4,-14.76075 0.0863,-15.42742 1.99986,-15.42742 1.11111,0 2,-0.66667 2,-1.5 0,-0.825 -1.5437,-0.78645 -1.94537,-1.5 -1.77772,-3.15804 -3.32915,-7.02478 -0.5346,-9.41353 0.70593,-0.60342 2.61879,-0.5359 -0.37915,-3.27246 -1.40226,-1.28 -0.83813,-7.19283 -0.90116,-8.69339 -0.22424,-5.3392 0.0267,-15.15144 0.36296,-16.0276 0.49973,-1.30229 2.34079,-1.59302 10.08764,-1.59302 7.19087,0 9.35133,0.30147 8.95799,1.25 -2.56534,6.18624 -2.96672,9.11043 -1.83255,13.35097 0.65184,2.43715 1.18424,10.88502 1.18424,18.79094 0,15.41724 0.64564,17.49011 5.01567,16.10312 2.08444,-0.66158 2.1076,-0.98473 1.79799,-25.08354 0.31956,-16.63093 -6.19234,-24.41379 11.36491,-24.41241 9.14466,7.2e-4 12.01029,0.33264 13.20742,1.52977 2.14075,2.14075 8.17571,2.17778 10.51085,0.0645 1.5959,-1.44427 3.63267,-1.69062 12.32664,-1.49097 5.72817,0.13154 10.94623,-0.0892 11.59569,-0.49062 1.72537,-1.06634 1.44286,-5.29723 -0.40096,-6.00477 -0.86998,-0.33385 -4.30787,-0.60699 -7.63975,-0.60699 -4.59676,0 -6.2544,-0.20443 -6.69193,-1.81313 -0.48627,-1.78795 -2.02797,-1.44092 -2.05473,-0.13715 -0.0279,1.36141 -3.94065,1.58099 -32.19877,1.80702 -8.96365,-1.39097 -28.42812,4.83899 -33.68179,-1.39279 -3.41069,-4.04567 -6.70182,-5.06722 -10.2354,-1.53364 -3.01818,3.01819 -3.23797,3.06969 -13.09975,3.06969 -8.50477,0 -9.94253,-0.22811 -9.45446,-1.5 0.89312,-2.32745 -0.36566,-4.5 -2.60732,-4.5 -1.92862,0 -2.00589,-0.45314 -1.52258,-8.92957 0.12884,-2.25967 1.06316,-4.68049 1.71763,-5.37202 0.88126,-0.93117 -1.36343,-4.59637 -1.77384,-5.00679 -1.43525,-1.43528 -5.87748,-0.98288 -6.79165,0.49628 -0.40379,0.65334 -0.6186,10.887 -0.47735,22.74146 0.2669,22.40026 0.45904,23.35501 4.59348,22.82637 1.74283,-0.22285 2.03802,-1.12367 2.29569,-7.00573 -0.18977,-10.53813 2.44004,-6.75 12.71482,-6.75 11.83143,0 12.47573,0.10578 13.61542,2.2353 0.77876,1.45512 1.36249,10.00617 1.67248,24.5 0.43091,20.14787 0.32052,22.2647 -1.16111,22.2647 -0.90052,0 -1.6373,0.45 -1.6373,1 0,0.55 0.81409,0.52482 1.4644,1 1.20966,0.88388 2.05255,11.30507 0.71447,11.875 -4.94853,2.06069 4.46777,10.26786 -1.28578,12.41071 -5.65196,0.81037 -5.36202,-0.40009 -8.89306,-2.7857 -1.64684,-1.1 -2.36419,-3.13071 -2.36577,-3.81821 -0.002,-0.6875 -0.62154,-1.25 -2.00903,-0.68179 -0.69975,0.28656 -3.48828,-2.025 -6.07142,-4.5 -8.29006,-5.91219 -5.14902,-4.18304 -6.56909,-14.75 -0.0164,-10.97039 -0.64163,-13.15378 -3.60452,-12.58733 -1.63363,0.31232 -1.91862,1.46224 -2.17338,8.76974 -0.22719,6.51653 -0.67753,8.70231 -2,9.70714 -1.22115,0.92785 -6.05512,1.30589 -16.98901,1.32865 -14.91043,0.031 -15.30336,0.0865 -16.1507,2.2818 -1.6082,4.16645 0.21181,4.62297 19.39808,4.86575 17.96,0.22726 17.96603,0.2281 21,2.92717 12.24435,10.89279 15.88966,13.95708 16.60348,13.95708 0.44898,0 0.95471,1.87753 1.12383,4.17228 0.41122,5.57955 2.37238,5.95567 4.41646,0.847 1.13979,-2.8486 2.10419,-3.9596 3.10407,-3.57591 3.7387,1.66871 3.65918,9.92165 3.66578,12.93225 -0.74808,3.09858 3.80313,16.29404 -3.62881,10.22802 -6.92855,-5.65514 -10.70275,-5.80474 -15.87813,-0.62935 -2.26111,2.2611 -2.87863,3.79208 -2.90367,7.19879 -0.0345,4.69661 -0.73273,5.90748 -5.83206,10.11431 -2.01473,1.6621 -4.05731,2.55502 -5.09287,2.22634 -2.86349,-0.90883 -7.04665,3.14791 -7.02103,6.80885 0.0475,6.78889 7.19868,10.54741 11.63234,6.11375 1.28998,-1.28998 2.40167,-3.26588 2.47042,-4.39088 -0.17603,-3.65523 2.5536,-6.13236 4.47554,-8.22791 3.16193,-3.43029 4.53533,-4.27798 6,-3.70334 3.44786,1.35273 7.85475,0.90223 10.89946,-1.1142 6.09103,-7.41427 5.00263,17.73548 5.00508,20.01738 -1.13105,16.19065 2.5196,19.60155 -7.75508,25.03525 -6.83494,3.55919 -13.05581,7.83218 -20.19194,9.43545 -4.35239,0.9259 -8.33088,1.77191 -9.19362,0.18842 -0.70567,-1.29518 -2.73078,-1.67481 -3.59597,-0.093 -0.80287,1.46782 -22.82485,1.10959 -23.23059,-0.23417 -0.12433,-0.41177 -1.53228,-2.88088 -4.16206,0.45554 -1.01194,1.28386 -28.17017,-0.43877 -35.00604,-3.89331 -6.9492,-3.62532 -9.06625,-5.25212 -10.08549,-7.75 -2.28909,-4.21529 0.0514,-3.16151 3.8841,-3.16151 3.46644,0 5.79411,0.56107 7.05261,1.7 1.03316,0.935 3.40871,1.7 5.279,1.7 1.87029,0 4.24584,-0.765 5.279,-1.7 1.40875,-1.2749 3.73423,-1.70383 9.29974,-1.71531 8.49254,-0.0175 10.23237,-0.7481 9.75875,-4.09778 -0.32267,-2.28209 -0.72175,-2.3996 -9.08749,-2.67584 -7.11423,-0.23492 -8.75,-0.57885 -8.75,-1.83971 0,-1.95827 -3.92775,-5.29416 -6.28518,-5.33809 -2.727,-0.0508 -6.55636,2.02607 -6.71482,4.13472 -0.0631,0.84015 -0.76935,2.83201 -5.04889,2.83201 -4.9706,0 -5.07881,-0.0659 -6.97804,-4.25 -1.37079,-3.01991 -1.9355,-6.51907 -1.95111,-12.08971 -0.0294,-10.48934 0.99445,-11.36913 13.47596,-11.5801 7.76077,-0.63986 8.42044,-0.77375 13.63404,4.22176 2.51132,2.40627 5.89969,4.8564 8.96075,6.72848 3.20403,1.97686 5.40929,3.93753 7.93114,5.82909 2.66616,1.97117 3.19848,2.06101 4.5,0.75948 2.22495,-2.22494 1.79518,-4.14187 -1.51478,-6.75644 -2.18883,-1.72898 -2.99335,-3.21225 -3,-5.531 -0.007,-2.56011 -0.70688,-3.59971 -3.64359,-5.4147 -5.91551,-4.32758 7.94373,-16.0509 13.57143,-20.35513 18.1487,-13.88066 17.93911,-17.80179 12.40811,-19.18998 -2.18935,-0.54949 -3.00601,-0.15823 -4.65656,2.23094 -9.63971,10.15858 -17.08349,17.04324 -22.81461,24.18691 -7.38422,9.20421 -12.82848,7.18315 -23.42277,7.2104 -7.03839,-1.26776 -14.3914,4.13675 -10.78684,-3.42209 0.89753,-1.88214 2.44265,-3.63411 3.4336,-3.89324 2.08614,-0.54554 5.89294,-6.34396 5.89842,-8.98433 0.0123,-5.911 -7.15888,-11.48244 -13.09985,-10.17759 -5.88314,2.56009 -2.89641,-10.17401 -2.89641,-14.88428 0,-10.15623 0.37807,-15.75409 1.09387,-16.19649 0.68606,-0.424 0.85183,-2.21692 0.44465,-4.80901 -1.77144,-11.27694 -1.7408,-16.84217 0.11168,-20.28202 1.66953,-3.10013 1.69696,-3.64287 0.30961,-6.12621 -3.0366,-5.43549 -12.00278,-3.42077 -11.92801,2.68025 0.0175,1.42725 0.6925,3.46852 1.5,4.53614 1.77273,2.34376 1.98385,12.72685 0.32192,15.83219 -1.40412,2.62362 -1.35818,7.62222 0.0833,9.06369 0.58465,0.58465 1.06299,2.49799 1.06299,4.25188 0,2.34714 -0.43353,3.15223 -1.64237,3.05 -0.90331,-0.0764 -1.84081,0.42361 -2.08333,1.11111 -0.26144,0.74111 0.40719,1.25 1.64237,1.25 1.97315,0 2.08333,0.53244 2.08333,10.06715 0.22298,7.00609 1.29943,8.84163 -3.5,13.36808 -2.75738,2.60055 -3.05357,3.3608 -4.125,6.14607 -2.61715,3.46591 -2.99938,1.95898 -6.30423,-0.31451 -3.98728,-2.74295 -7.3184,-5.60323 -7.25,-6.76679 0.14778,-2.51378 -1.33624,-2.54261 -2.65966,-1.99845 -1.23585,0.50814 -3.56183,-0.44358 -5.43687,-1.93959 -6.77645,-5.40664 -6.69742,-5.9628 -6.43665,-13.54591 0.13338,-3.87847 -0.59634,-19.83391 1.30498,-21.49819 0.85793,-0.75097 2.21463,-0.61033 0.30063,-2.09847 -1.7692,-1.37555 -1.93962,-7.39262 -1.91562,-13.3514 0.005,-1.12454 -0.41922,-3.32025 1.33228,-4.43098 0.63819,-0.40471 1.49439,-1.43363 -0.57256,-3.22938 -0.67289,-0.5846 -1.08866,-17.56766 -1.29841,-18.96636 -0.88945,-5.93124 1.48517,-7.44127 11.70182,-7.44127 8.84004,0 10.85928,-0.54054 10.85928,-2.90699 0,-2.82552 -2.16771,-4.09301 -7,-4.09301 -2.53,0 -5.08695,-0.48695 -5.6821,-1.0821 -0.77614,-0.77614 -1.65999,-0.72121 -3.12591,0.19427 -2.0986,1.3106 -4.11197,0.75369 -8.40051,-2.32364 -1.4029,-1.00666 -2.20789,-0.85725 -4.5,0.83523 -2.59171,1.91369 0.59847,4.9316 -21.36291,3.76437 -32.93816,0.76724 -19.04487,-9.53668 -30.18588,-10.38813 -3.46807,0 -5.74269,2.45805 -5.74269,6.2058 0.73792,4.81249 -3.24663,2.83064 -6.93796,2.56653 -7.44825,-0.53292 -9.35444,-0.81951 -9.06204,5.02936 0.2256,4.51259 6.67927,2.90323 13.84862,2.8238 4.50712,-0.0499 7.65038,4.32075 14.54365,0.87958 4.56358,-2.27817 8.45466,-0.78529 19.60773,-0.97248 13.26185,-0.22258 21.29443,0.0354 22.75,0.73065 2.14277,1.02347 2.25,1.629 2.25,12.70571 0,7.84468 -0.059,12.59621 -1.16183,12.98225 -2.03989,0.71407 -1.53482,3.15387 0,3.18643 1.55459,0.033 1.16183,6.70308 1.16183,16.69378 0,13.6191 -2.31073,17.51051 -4.15525,19.17978 -1.69489,1.53385 5.81403,8.18091 1.75383,8.79784 -4.85078,1.06161 -12.04906,0.29214 -16.96975,0.19094 -14.11153,-0.29023 -16.62883,-0.2268 -16.62883,-1.5 0,-0.825 -0.45,-1.5 -1,-1.5 -0.55,0 -1,0.675 -1,1.5 0,1.27004 -2.42222,1.5 -15.8,1.5 -11.13441,0 -16.16172,-0.36172 -17.02496,-1.22496 -0.96661,-0.96661 -1.63864,-0.96661 -3.18643,0 -1.28765,0.80415 -6.51789,1.23022 -15.22504,1.24027 -7.29496,0.008 -13.87605,0.30582 -14.92127,1.19751 -1.96127,1.67318 -0.31554,5.56943 1.71227,6.47893 10.79064,3.14504 25.95125,-2.02492 26.20499,1.47166 0.55268,7.61619 7.52175,4.67121 7.56194,0.54886 -0.2012,-3.0402 14.67987,-2.71227 19.66159,-2.71227 14.90242,0 19.99564,0.31157 20.43358,1.25 0.46666,1 0.7,1 1.16666,0 0.41988,-0.89973 3.999,-1.25 12.77276,-1.25 8.34426,-0.77171 12.54494,0.62307 18.03785,3.30507 2.64882,1.29333 7.20662,4.69339 6.60606,5.87881 -0.94786,1.87093 0.6199,1.81612 1.37756,1.81612 0.75765,0 2.67383,0.42912 2.62244,1.5 -0.0729,1.51948 1.43669,1.81622 3.00212,1.5 2.17995,-0.44035 13.17156,8.67204 15.20069,13.20426 2.90496,6.48844 6.41762,10.51536 10.28615,11.7921 4.87548,0.86084 3.51104,3.70885 3.51104,8.08119 0,5.56622 -0.30168,6.92245 -1.53984,6.92245 -2.67614,0 -9.11062,3.79589 -11.74843,6.93075 -5.61392,6.67176 -6.14705,16.79084 -1.2727,24.15648 1.50554,2.27502 3.4468,3.68415 1.89915,4.82174 -6.61388,4.4062 -12.10906,8.8604 -17.66556,13.88138 -11.96082,10.80805 -10.13529,-8.22374 -10.01363,-18.58712 0.39812,-7.76292 -0.21024,-20.30809 2.73143,-21.32078 2.02607,-0.69749 6.42134,-9.412 4.17112,-13.76344 -0.91176,-1.76315 -2.76109,-3.70844 -4.10964,-4.32288 -1.86233,-0.84853 -2.4519,-1.8901 -2.4519,-4.33165 0,-6.52728 -1.09178,-9.46448 -3.51801,-9.46448 -2.7226,0 -3.48199,1.67924 -3.48199,7.69977 0,3.61426 -0.60972,5.23063 -3,7.95301 -2.08629,2.37615 -3,4.46161 -3,6.84722 0,2.38561 0.91371,4.47107 3,6.84722 2.81189,3.20257 3,3.93122 3,11.62078 -0.41165,6.64443 2.68253,8.41713 -4.2285,7.86799 -3.28361,-0.26091 -4.30034,0.028 -4.55001,1.29297 -0.24529,1.24277 0.76587,1.79202 4.26514,2.31676 7.07986,0.33441 4.49619,3.58229 4.30001,9.85962 -0.34556,11.05698 -1.55583,11.95936 -7.40656,5.5223 -2.13405,-2.3479 -8.49258,-8.92731 -14.13008,-14.6209 -6.77075,-6.83813 -9.50061,-7.73077 -9.80806,-13.12507 -0.42205,-7.40519 -2.37804,-7.83623 -6.68908,-7.49624 -1.79425,0.1415 -2.68235,0.76699 -3.54071,-1.64269 -0.42575,-5.01279 -2.24928,-10.02618 -9.05427,-8.76349 -2.53716,0.47078 -3.82968,-0.0791 -6.82355,-3.28447 -2.10888,-2.25786 -6.19683,-6.38393 -9.08433,-9.16902 -2.8875,-2.78509 -5.66897,-5.12191 -5.26531,-6.14478 0.5536,-1.40283 -1.63094,-3.70532 -3.5848,-4.01761 -3.23755,-0.51745 -5.39989,1.28183 -5.39989,4.49325 0,2.26393 2.33959,5.06168 3.80037,4.70512 0.9673,-0.23611 5.50376,4.71913 10.36358,9.62077 6.84464,6.90353 8.83605,9.53657 8.83605,11.683 0,1.524 0.27953,3.49936 0.62118,4.38969 0.91418,2.3823 6.21187,4.80352 8.98652,4.10712 2.12738,-0.53393 2.3923,-0.2661 2.3923,2.41863 0,4.03291 3.23579,7.24896 6.47538,6.43587 2.12207,-0.5326 4.32364,1.24809 16.67205,13.48477 l 4.49499,5.16984 4.43199,5.80357 c 3.80077,4.977 -8.60043,4.30508 -12.23639,-0.2098 -3.41731,-4.24338 -8.01753,-1.81078 -10.42945,0.85436 -1.43041,1.58059 -3.20714,2.45946 -9.67332,2.69194 -8.40671,0.30224 -10.7876,1.60375 -9.42578,5.15258 0.51331,1.33767 2.18314,1.63592 9.15914,1.63592 6.72399,0 7.65131,-0.44059 9.289,1.9325 4.33075,6.2754 7.56935,5.97824 11.65267,1.73131 3.6157,-5.13755 9.47826,-3.65455 15.25634,-3.94507 10.27787,0.16307 10.2514,0.77286 6.57962,5.45089 -2.19283,2.79378 -7.55474,5.52937 -8.54291,6.36727 -0.98817,0.8379 -2.1975,1.28507 -2.678,0.97875 -2.25251,-1.436 -1.95881,0.56501 -2.20944,1.40923 -0.29029,0.97778 -1.46684,2.70012 -3.48835,4.07512 -3.19833,2.17546 -4.65895,2.47832 -11.2515,2.33301 -16.40177,-0.36152 -32.38062,0.11916 -33.83467,1.01782 -0.58478,0.36141 -0.97816,1.21782 -0.87418,1.90314 0.49954,3.2924 1.85058,3.74603 11.15664,3.74603 0.83621,0.0714 8.75881,-0.11449 9.30889,1.81691 0.98118,3.445 4.81895,4.87013 7.37011,0.92037 2.04456,-3.16543 6.81935,-3.53244 8.3252,-1.09866 1.78373,2.8829 3.5436,-0.10085 4.30993,-0.76617 3.20394,-3.58145 3.17891,11.97107 3.30894,23.1797 -1.77017,12.00785 0.52287,21.25753 -3.17823,22.32286 -3.11082,0.36562 -9.51384,2.42469 -11.0652,3.3411 -3.47434,2.05235 -6.15083,0.89683 -9.90347,-4.27561 -2.51026,-3.46001 -5.97309,-5.19318 -7.94317,-3.97561 -2.13884,1.32188 -0.86975,4.15741 4.04383,9.03513 4.76594,4.73115 5.01248,5.23117 4.58532,9.2994 -0.14479,7.68609 -5.93695,4.75752 -10.86229,4.07439 -7.31441,-1.02938 -9.82703,-1.81234 -11.65935,-3.63317 -3.78268,-3.75898 -9.16434,-0.94286 -9.16434,4.79552 0,4.45294 6.52495,8.15956 8.56188,4.86374 0.7593,-1.22857 7.87572,-0.56335 15.7122,1.46874 3.72797,0.96671 5.3408,2.07198 7.36041,5.04411 2.20182,3.24028 2.4096,4.13637 1.39756,6.02739 -1.52412,2.84784 -6.114,5.55988 -9.40959,5.55988 -1.41293,0 -4.62523,-0.99901 -7.13844,-2.22003 -3.78711,-1.83992 -3.07245,-2.2859 -3.51914,-4.34708 -1.98396,-9.15477 -2.95972,1.47219 -11.74025,-2.90743 -2.85499,-1.76448 -7.15992,-3.29326 -8.72308,-2.15025 -3.84573,2.81206 0.46723,6.03149 17.99845,13.43503 10.93382,4.61741 11.26462,4.97063 7.27338,7.76636 -1.80036,1.26109 -5.04492,4.45975 -7.21013,7.10814 -6.15714,7.53114 -9.40584,9.89466 -11.66291,8.48509 -4.45295,-2.78091 -8.61947,-0.23508 -7.48655,4.57442 0.35703,1.51566 0.74748,3.31219 0.86768,3.99228 0.28652,1.62123 -26.62871,28.66028 -28.9752,29.10849 -2.77326,0.52973 -4.30627,2.17529 -4.30627,4.62244 0,2.45355 2.85927,5.5504 5.07874,5.50074 2.36756,-0.053 4.92126,-2.55852 4.92126,-4.82844 0,-1.17687 0.35015,-2.13976 0.77811,-2.13976 0.42797,0 4.59047,-3.82039 9.25,-8.48976 5.58654,-5.59833 9.23819,-8.49325 10.72189,-8.5 1.65827,-0.008 2.25472,-0.60197 2.26793,-2.26024 0.0118,-1.47532 1.80978,-3.748 5.2222,-6.60081 2.86234,-2.39294 6.02215,-5.69571 7.02179,-7.33948 1.53473,-2.52366 2.05658,-2.79027 3.35401,-1.71349 1.88074,1.56087 3.41858,-0.24824 2.66397,-3.13387 -0.6783,-2.59383 5.47198,-8.03165 8.7201,-7.70995 3.30798,0.79929 2.5,13.15001 2.5,17.7476 0,12.08734 0.72526,17.757 -0.78981,18.4102 -5.48909,2.36652 -2.86509,9.12391 -0.47774,10.73229 1.00124,0.67453 1.43904,5.11421 1.19491,11.3208 -0.23507,5.97633 -0.4274,11.24196 -0.4274,11.70138 0,0.45943 -0.9,1.73533 -2,2.83533 -1.83718,1.83718 -3.33333,2 -18.37756,2 -13.7231,0 -16.5906,0.2567 -17.69201,1.58382 -2.31162,2.78533 0.10084,4.92937 5.43261,4.82816 3.86601,-0.0734 4.63696,0.21756 4.63696,1.75 0,1.01091 0.45,1.83802 1,1.83802 0.55,0 1,-0.675 1,-1.5 0,-1.74888 -0.24214,-1.71026 11.74997,-1.87383 7.1421,0.55282 9.24993,-3.38041 9.25,3.98291 2e-5,2.5804 1.11139,6.30064 2.98736,10 2.34864,4.63144 2.99004,7.20935 3,12.05759 0.0132,6.4511 0.98129,7.85069 4.26267,6.16302 1.35667,-0.69776 1.75094,-2.18453 1.75419,-6.61487 0.003,-4.10633 0.70665,-7.09945 2.5,-10.6343 1.73368,-3.41725 2.49581,-6.54722 2.49581,-10.25 -0.37517,-7.12871 0.2468,-5.33052 6.93261,-5.33052 6.1187,0 6.13426,-0.12387 7.58557,2.05728 2.70929,4.07174 7.86422,4.43025 11.48182,0.94272 3.06047,-2.9917 3.10172,-3 14.91203,-3 9.5858,0 12.09361,-0.30187 13.15754,-1.58382 0.95468,-1.15032 1.02639,-2.03987 0.26201,-3.25 -0.87142,-1.37961 -2.96243,-1.68545 -12.15756,-1.77822 -8.95529,-0.0903 -12.84307,0.68082 -16.07472,-2.2499 -3.90231,-3.53893 -8.53002,-1.86821 -12.30773,1.55057 -1.30202,1.17831 -3.31049,1.44764 -8.38545,1.12449 -9.68979,-0.61699 -10.40612,-1.76669 -10.40612,-16.70166 0,-10.42949 0.21213,-11.84861 2,-13.37943 2.52151,-2.15898 2.56621,-5.22202 0.10143,-6.94843 -0.43981,-0.30806 -4.51235,-4.00956 -1.31127,-6.25329 2.88077,-2.01922 2.18674,-2.32219 0.86418,-3.13811 -1.37676,-0.84937 -1.54948,-5.85943 -1.57979,-10.1653 -0.44102,-5.98094 -2.55117,-16.44119 2.67606,-18.2269 7.09096,0 10.02848,-8.04055 4.74939,-13 -3.38616,-2.7233 -2.00459,-4.07684 0.25,-6.53914 2.59705,-2.81885 2.94466,-2.91781 6.25,-1.7793 10.66956,3.67508 21.37519,-0.73148 27.65611,-11.38357 3.42914,-7.5588 11.26225,-4.11389 19.3807,-4.03245 l 5.62507,1.60639 5.96743,-1.41632 5.70711,0.16207 c 3.00785,0.0854 5.77684,2.48107 8.95015,1.6427 3.49189,-0.92252 6.4193,-1.93829 9.16142,-1.69517 17.86307,1.58377 19.25266,-1.57585 18.00538,-4.82621 -0.85906,-2.23868 -8.25814,-3.00967 -24.82841,-2.58714 -12.73002,0.32461 -13.69065,0.21916 -14.25646,-1.56483 -0.54971,-1.73329 -0.69405,-1.75677 -1.53728,-0.25 -0.75961,1.35734 -2.57516,1.66289 -9.88091,1.66289 -7.84532,0 -8.95424,-0.21605 -8.98211,-1.75 -0.029,-1.59475 -0.141,-1.60659 -1.26262,-0.13352 -0.67694,0.88907 -3.31807,1.87211 -5.86918,2.18454 -4.36496,0.76046 -4.54861,1.05233 -5.32135,-3.11648 -0.76235,-4.11276 -3.94745,-10.75109 -7.01847,-13.53032 -4.33609,-8.19702 0.27882,-8.06201 0.46825,-11.01418 -2.51553,-2.01897 -2.90893,-7.20559 -0.72395,-9.88708 0.88775,-0.29592 0.73558,-0.91919 -0.53452,-2.18928 -1.25882,-1.25883 -1.47703,-2.13533 -0.74974,-3.01166 1.48045,-2.25768 1.29126,-2.38665 1.25662,-3.19351 -0.0477,-0.92966 1.69984,-1.72339 1.68143,0.36205 -0.0127,1.43977 0.31207,2.28432 -0.56383,3.30894 -0.83442,0.9761 0.92153,0.88971 1.20901,1.17718 1.30979,1.3098 1.25132,4.93613 -0.0879,5.45003 -2.35334,0.90306 -1.80311,5.88104 0.77731,7.03246 2.60067,1.0276 2.29751,0.95841 0,2.188 -3.3477,1.79164 -3.02561,6.98588 0.65167,10.50894 2.56265,2.45517 4.84311,6.61577 6.5027,11.86387 0.69715,2.20461 5.61616,2.42358 5.61616,0.25 0,-1.00345 1.00349,-1.5 3.03138,-1.5 1.77208,0 3.27051,0.62314 3.60699,1.5 0.42705,1.11287 2.19547,1.5 6.85199,1.5 5.18931,0 6.35743,-0.30994 6.74435,-1.78953 0.61978,-2.37004 6.12384,-2.26451 6.58861,0.12633 0.28702,1.47641 2.31919,1.6632 18.09502,1.6632 15.94693,0 17.94162,0.18777 19.42667,1.82874 2.1857,2.41517 2.10326,6.4556 -0.17375,8.51627 -1.49741,1.35514 -4.10515,1.65499 -14.39301,1.65499 -10.71033,0 -12.65691,0.24142 -13.19211,1.63612 -0.58129,1.51483 -0.76187,1.51483 -2.43573,0 -2.47734,-2.24196 -15.33381,-2.32498 -17.17135,-0.11089 -1.13448,1.36697 -1.4407,1.36697 -2.95118,0 -1.24603,-1.12766 -4.01668,-1.52523 -10.6292,-1.52523 -6.40948,0.0928 -7.92072,-1.89984 -10.85589,3.55045 -4.92744,9.14968 -15.97657,14.4549 -26.30575,12.63063 -4.66924,-0.82465 -6.0162,-0.74294 -7.23702,0.43901 -1.03855,1.00548 -1.16151,1.67184 -0.3997,2.16607 2.00321,1.29962 3.3997,5.02756 3.3997,9.07552 0,3.15567 -0.57119,4.44246 -2.72346,6.13543 -1.4979,1.17825 -3.98993,2.39557 -5.53785,2.70515 -5.32356,0.34914 -2.72188,7.79256 -2.66968,11.87204 0.12461,9.73739 0.4094,11.54868 2.04912,13.03261 1.86954,1.69191 1.86624,1.75899 -0.18031,3.66564 -2.6037,2.02425 -1.87951,2.16062 0.18874,4.36217 3.003,3.19654 3.09108,8.91071 0.1728,11.21012 -1.86624,1.47047 -2.1179,2.78826 -2.25531,11.80972 -0.14503,9.5219 -0.0128,10.25395 2.12315,11.75 3.23379,2.26503 11.60388,2.81902 15.05863,-0.40082 3.50199,-3.26387 9.01575,-3.84418 13.42651,-0.31196 1.89265,1.51567 5.13968,1.71783 14.50625,1.81323 13.25644,0.13503 15.84141,1.15402 15.84141,6.24466 0,4.68257 -2.93287,5.68203 -15.71295,5.3546 -10.99443,-0.28167 -11.26052,-0.23595 -13.65379,2.34644 -3.42646,3.69721 -8.00457,4.83881 -12.26543,3.05851 -1.86777,-0.7804 -3.66277,-2.11423 -3.98888,-2.96407 -0.41024,-1.06907 -1.94648,-1.54515 -4.98594,-1.54515 -4.04541,0 -4.39301,0.20234 -4.39301,2.55718 0,4.02978 -2.08543,11.26883 -3.6111,12.53503 -0.92264,0.76572 -1.39958,3.37757 -1.4207,7.78023 -0.0188,3.91882 -0.57475,7.3428 -1.36025,8.37756 -1.88165,2.47877 -7.76446,2.33029 -9.3674,-0.23643 z M 262.3355,478.03262 c -0.14618,-5.04424 0.34727,-19.21902 1.85977,-20.18914 1.5125,-0.97012 3.8704,-2.7805 5.23978,-4.02305 1.36938,-1.24256 2.84927,-2.2592 3.28864,-2.2592 0.43937,0 2.67212,-1.8 4.96166,-4 3.13969,-3.01689 4.97352,-4 7.46137,-4 2.53583,0 3.29855,-0.4253 3.29855,-1.83932 0,-1.7771 5.64658,-5.34149 6.8699,-7.06459 0.19224,-0.27079 2.29299,-1.45592 4.1372,-3.10243 1.84421,-1.64651 6.43693,-2.65298 6.82284,-2.59522 1.69418,0.25355 1.38284,-1.00565 3.05964,-3.30532 4.69229,-6.43531 10.40593,-9.10949 18.37469,-11.17937 8.92126,-2.31729 11.50668,-2.35638 17.88423,-0.27039 5.70592,1.86632 6.583,3.17644 4.87959,7.28881 -1.68538,4.06888 -6.43894,5.9425 -9.95581,3.9241 -2.35212,-1.34993 -3.2562,-1.34284 -8.54889,0.0671 -7.73618,2.34735 -5.95399,5.08663 -6.05415,15.02104 -0.0933,9.24901 -0.49967,13.56575 -1.3024,13.83333 -0.8543,0.28475 -1.16684,-3.6006 -1.16684,-14.50583 0.73799,-14.52746 -2.65808,-14.0281 7.86054,-16.67891 6.55238,-1.48722 8.20632,-1.5682 9.93829,-0.48656 1.71273,1.06962 2.52778,1.05672 4.63946,-0.0734 8.37833,-4.48395 -1.27066,-8.23796 -10.68756,-7.54168 -2.39969,0.17744 -8.43289,2.36475 -8.76859,2.49643 -0.44643,0.17512 -1.84411,0.92062 -2.81829,1.18051 -0.84311,0.22492 -4.04161,1.54261 -4.6607,1.90468 -1.87902,1.09893 -8.91298,5.58562 -9.54342,8.17083 -0.35708,1.46421 -1.30582,2.22235 -2.7979,2.23582 -3.59096,0.0324 -14.72246,8.51883 -15.76695,12.02038 -0.7342,2.46133 -1.50471,3.05823 -4.29121,3.32427 -2.37607,0.22686 -6.34186,2.55497 -13.20174,7.75 -5.74722,4.35241 -6.10288,4.25582 -7.72759,8.35236 -0.17313,0.43653 -0.96764,2.60774 -1.01622,5.0774 -0.0809,4.11194 -0.23247,11.32832 -0.2431,12.65311 -0.0722,9.0051 -1.69164,9.31024 -2.02479,-2.18576 z"
       inkscape:connector-curvature="0"
       sodipodi:nodetypes="cssccssssscssscssssssssssssssssccsssssssssssssssccscccsscscccsssssscsscssscsssssssssssssssssssssccssccssscasssscsssssssssssssssssscssscsssssssssssccssssssssscsssssssssssssssssccsssscsccssssssccscccssccssssssssssssssssssssssssccssssssssccsssccssscssccsscsssssccccsscsssssssscccccssssssccccsssscccssssssscssssssccsssssssssssssscsssssssssssssssssscssssssssssscsssssssscsssscssssssssscssssscsssccssssscsccssccscsssssssssscsssssssssscsssccssssssssssscsssssssssssccsccsssssssssssssssssssssssccccssssccssssssssssssssccssscssscccssssssssssccsssssccccsccsssssssssscccssssssccsccccsssscccssssssssssssccccssccsscsccsscccsssssssssssccccsssssssssssssssssccccssssssssssccsssssscscsccsscasssssccssscscsssssssssccsccsssscsssssssssssssscsssssssccsssssssscssscccssssccssssssssscsssssscsscsssccssssccsssssssssssccsssssccscssssssssssssccccsccccsssssssscscccccsccsscsccssssssssssssssssccsssssccsccssssssssssssssssccssssssssssssssscccccsssssssssssssss" />
    <path
       style="fill:#000000"
       d=""
       id="path2998"
       inkscape:connector-curvature="0" />
  </g>
</svg>
