<?xml version="1.0" encoding="UTF-8" standalone="no"?>
<!-- Created with Inkscape (http://www.inkscape.org/) -->

<svg
   xmlns:dc="http://purl.org/dc/elements/1.1/"
   xmlns:cc="http://creativecommons.org/ns#"
   xmlns:rdf="http://www.w3.org/1999/02/22-rdf-syntax-ns#"
   xmlns:svg="http://www.w3.org/2000/svg"
   xmlns="http://www.w3.org/2000/svg"
   xmlns:sodipodi="http://sodipodi.sourceforge.net/DTD/sodipodi-0.dtd"
   xmlns:inkscape="http://www.inkscape.org/namespaces/inkscape"
   width="744.09448819"
   height="1052.3622047"
   id="svg2"
   version="1.1"
   inkscape:version="0.48.2 r9819"
   sodipodi:docname="drawing.svg">
  <sodipodi:namedview
     id="base"
     pagecolor="#ffffff"
     bordercolor="#666666"
     borderopacity="1.0"
     inkscape:pageopacity="0.0"
     inkscape:pageshadow="2"
     inkscape:zoom="0.7"
     inkscape:cx="823.54377"
     inkscape:cy="743.14218"
     inkscape:document-units="px"
     inkscape:current-layer="layer1"
     showgrid="false"
     inkscape:window-width="1440"
     inkscape:window-height="846"
     inkscape:window-x="0"
     inkscape:window-y="26"
     inkscape:window-maximized="1" />
  <defs
     id="defs4" />
  <metadata
     id="metadata7">
    <rdf:RDF>
      <cc:Work
         rdf:about="">
        <dc:format>image/svg+xml</dc:format>
        <dc:type
           rdf:resource="http://purl.org/dc/dcmitype/StillImage" />
        <dc:title />
      </cc:Work>
    </rdf:RDF>
  </metadata>
  <g
     id="layer1"
     inkscape:groupmode="layer"
     inkscape:label="Layer 1">
    <path
       inkscape:connector-curvature="0"
       id="path2996"
       d="m 504.91033,225.05141 c 1.30158,3.39182 -2.03804,4.41874 -4.00741,1.23224 -0.65356,-1.05747 -2.98716,-1.92267 -5.1858,-1.92267 -2.19863,0 -7.82363,-3.52678 -12.49997,-7.8373 -4.67636,-4.3105 -11.52455,-9.1 -15.21823,-10.64331 -6.45555,-2.69731 -6.69317,-3.15142 -6.13256,-11.71977 0.70212,-10.73123 4.60454,-13.00227 7.59611,-4.42062 2.12955,6.10883 3.27158,6.39477 11.68842,2.92655 2.43406,-1.00295 3.92729,-0.035 5.59594,3.62721 1.25179,2.74738 3.21861,5.09511 4.3707,5.217 1.15209,0.1219 2.95992,0.4228 4.01738,0.66848 1.05748,0.24569 3.41684,0.57846 5.24303,0.73957 1.82619,0.16112 4.6978,2.39512 6.38138,4.9646 2.79937,4.27237 2.79945,5.07101 7.2e-4,9.34242 -1.6832,2.56887 -2.51556,6.0904 -1.84971,7.8256 z m -205.88754,74.29362 c -0.65355,1.05747 -1.56982,1.92266 -2.03615,1.92266 -0.46632,0 -0.84785,-0.86519 -0.84785,-1.92266 0,-1.05747 0.91627,-1.92267 2.03614,-1.92267 1.11988,0 1.50141,0.8652 0.84786,1.92267 z m 202.783,-1.44201 c 0.0612,5.5291 -0.82819,6.59644 -2.81614,3.3799 -0.64836,-1.04909 -0.29312,-3.42838 0.78941,-5.28733 1.68839,-2.89929 1.97654,-2.62806 2.02673,1.90743 z m -264.30838,30.28202 c 0.76744,1.24177 0.53014,3.12292 -0.52732,4.18038 -1.28177,1.28179 -2.38779,1.1701 -3.31801,-0.33504 -0.76744,-1.24175 -0.53016,-3.12291 0.52733,-4.18038 1.28177,-1.28178 2.38778,-1.1701 3.318,0.33504 z m 183.24347,116.27054 c 0.59196,0.59197 10e-4,2.14337 -1.31276,3.4476 -1.89887,1.88471 -2.11971,1.66387 -1.07632,-1.07631 0.72203,-1.89618 1.7971,-2.96326 2.38908,-2.37129 z M 357.66416,581.817 c 0,2.36167 -1.24145,4.00554 -3.02498,4.00554 -1.79045,0 -2.77129,-1.30811 -2.40332,-3.20533 0.93547,-4.82353 5.4283,-5.48585 5.4283,-0.80021 z m 5.768,5.81474 c 0,0.99506 -0.8652,2.34392 -1.92267,2.99747 -1.05746,0.65356 -1.92266,-0.16054 -1.92266,-1.80918 0,-1.64861 0.8652,-2.99749 1.92266,-2.99749 1.05747,0 1.92267,0.81414 1.92267,1.8092 z m 273.01885,21.34821 c 0,4.07417 -4.17502,1.41021 -9.15095,-5.83892 -2.92351,-4.2591 -7.40878,-8.16981 -10.07573,-8.78507 -2.64367,-0.60987 -6.79407,-1.91419 -9.22314,-2.89848 -5.47781,-2.21965 -15.20768,-2.33475 -16.52981,-0.19549 -1.35333,2.1897 -20.72103,6.68746 -25.1081,5.83083 -5.36659,-1.04787 -11.32909,-14.4077 -12.27664,-27.50755 -0.58941,-8.14849 -2.14504,-13.36193 -5.19353,-17.40518 -2.39364,-3.17473 -5.69079,-9.01673 -7.32701,-12.98224 -1.63622,-3.9655 -3.8843,-7.21 -4.99571,-7.21 -1.11144,0 -2.02078,-0.94503 -2.02078,-2.10007 0,-4.33722 -6.77367,-10.39472 -10.95617,-9.79777 -5.64178,0.80523 -12.66394,-3.12731 -11.41165,-6.39073 0.55135,-1.4368 0.0452,-2.93144 -1.12487,-3.32145 -3.25391,-1.08464 -3.4724,-7.23 -0.25707,-7.23 1.55498,0 2.27088,-0.90038 1.59074,-2.00089 -0.68015,-1.10047 -2.85476,-1.48729 -4.83249,-0.85959 -4.47671,1.42086 -13.87303,-4.42053 -11.97399,-7.44383 0.75755,-1.20617 1.13416,-3.67317 0.83676,-5.48218 -0.79132,-4.8134 3.1482,-11.12856 6.95302,-11.14587 3.03193,-0.0134 8.10371,-7.71983 8.10371,-12.31276 0,-1.07129 -2.37468,-3.84129 -5.27704,-6.15555 -5.21557,-4.15874 -5.23448,-4.25477 -1.62468,-8.24358 5.32129,-5.87994 8.97258,-5.02805 18.0374,4.20832 9.20827,9.38255 9.92975,12.02687 3.70754,13.58855 -3.86847,0.97092 -4.29708,2.06833 -3.6484,9.34109 0.40426,4.53252 1.51162,9.06289 2.46079,10.06748 2.98463,3.15896 1.881,5.21122 -2.11961,3.94146 -2.11493,-0.67126 -3.84534,-0.36772 -3.84534,0.67452 0,4.09541 2.46853,7.97749 5.07271,7.97749 3.80534,0 5.2346,4.72414 2.80356,9.26657 -1.69802,3.17279 -1.16779,4.37733 3.2166,7.30716 2.88739,1.92946 5.86758,3.32606 6.62261,3.10358 0.75506,-0.22247 0.87878,0.88292 0.27497,2.45645 -1.17751,3.06856 0.11882,3.4134 10.99301,2.92454 4.20493,-0.18899 7.84141,0.85815 9.36809,2.69772 1.37243,1.65366 4.55238,3.00667 7.06657,3.00667 2.51419,0 4.57125,0.76434 4.57125,1.69852 0,3.38801 10.34245,3.80503 12.79595,0.51595 2.18646,-2.93107 2.92706,-2.87947 9.61032,0.66952 5.25047,2.78815 9.77329,8.03212 16.45087,19.07383 5.06524,8.37569 9.20956,15.94619 9.20956,16.82335 0,3.74959 -9.35763,1.31016 -12.32053,-3.21182 -1.95634,-2.98572 -4.9536,-4.80667 -7.9118,-4.80667 -4.25773,0 -4.76235,0.79825 -4.76235,7.53342 0,4.14338 -0.57448,9.0305 -1.27664,10.86027 -1.12449,2.93036 -0.24303,3.21034 7.39639,2.34927 7.04174,-0.79372 9.09306,-0.30499 10.90625,2.5984 1.22831,1.9668 3.42484,3.57599 4.8812,3.57599 5.19506,0 12.75954,5.31793 17.49916,12.30216 2.64824,3.90242 4.815,7.92206 4.815,8.93258 z M 408.2733,606.49123 c -4.70453,6.30731 -12.15578,8.50532 -12.15578,3.5858 0,-1.46458 2.03214,-3.99439 4.51586,-5.62179 2.6727,-1.75122 5.5171,-6.535 6.96899,-11.72061 1.34921,-4.81891 3.69235,-9.79017 5.20699,-11.04718 4.85461,-4.02899 0.91932,17.48982 -4.53606,24.80378 z m -39.75956,-2.40334 c 0.32745,1.05747 -0.95275,3.93668 -2.84487,6.39825 -3.03305,3.94586 -3.72916,4.12748 -5.88124,1.53438 -3.74632,-4.51405 -1.84366,-9.85529 3.51064,-9.85529 2.54107,0 4.88804,0.86519 5.21547,1.92266 z m -220.42038,22.11068 c 0,1.05747 -0.91627,1.92267 -2.03616,1.92267 -1.11988,0 -1.5014,-0.8652 -0.84785,-1.92267 0.65355,-1.05746 1.56981,-1.92266 2.03615,-1.92266 0.46633,0 0.84786,0.8652 0.84786,1.92266 z m 152.8521,-442.21361 c 0.65355,1.05746 2.91867,1.92267 5.0336,1.92267 2.11493,0 3.31063,-0.86521 2.65706,-1.92267 -0.65355,-1.05748 -2.91866,-1.92267 -5.03359,-1.92267 -2.11494,0 -3.31062,0.86519 -2.65707,1.92267 z m -13.45868,13.45867 c 0.65355,1.05747 4.21646,1.92267 7.91761,1.92267 3.99662,0 6.2468,-0.78078 5.54107,-1.92267 -0.65355,-1.05747 -4.21647,-1.92267 -7.91761,-1.92267 -3.99662,0 -6.24681,0.78078 -5.54107,1.92267 z m 131.70275,27.42958 c 0,0.91616 2.37191,1.39207 5.27091,1.05748 6.14713,-0.70951 8.80762,-7.33772 2.94527,-7.33772 -3.75609,0 -8.21618,3.40919 -8.21618,6.28024 z M 189.6296,307.82353 c 0.64531,1.68163 1.94591,3.05751 2.89025,3.05751 2.16843,0 2.17121,-3.99775 0.006,-7.41528 -2.13512,-3.36964 -4.49678,0.18478 -2.89545,4.35777 z m 61.25691,100.89441 c 2.04122,6.4313 4.89876,4.72456 3.6568,-2.1841 -1.48324,-8.25069 -6.0564,-11.95655 -19.43616,-15.75011 -6.08762,-1.72602 -15.07794,-4.40398 -19.97846,-5.95106 -11.27797,-3.56045 -21.75336,-3.59885 -25.25954,-0.0926 -3.74134,3.74134 -7.97786,14.41455 -6.36272,16.02973 0.72747,0.72745 4.95365,-0.60049 9.39149,-2.95099 10.44603,-5.53277 17.18691,-5.39137 25.92114,0.54369 3.8905,2.64367 8.98475,4.80667 11.32053,4.80667 2.33578,0 4.74641,0.80823 5.35693,1.79608 0.6105,0.98782 4.03275,1.32178 7.60497,0.74207 5.42227,-0.87991 6.70801,-0.38268 7.78502,3.01061 z m -60.49446,55.97653 c -1.64256,3.06915 -1.46217,3.84534 0.8937,3.84534 1.66986,0 2.95164,-1.66988 2.95164,-3.84534 0,-2.11494 -0.40217,-3.84534 -0.89369,-3.84534 -0.49151,0 -1.81977,1.7304 -2.95165,3.84534 z m 7.71158,173.68369 c -7.56641,4.46959 -8.42308,4.01845 -3.96026,-2.08559 4.23512,-5.79324 7.23525,-19.70734 4.24858,-19.70734 -1.01825,0 -3.63804,3.02821 -5.82176,6.72934 -3.78121,6.40866 -7.94543,8.92786 -7.94543,4.80667 0,-3.03223 -5.76703,-2.23971 -6.9953,0.96134 -1.30755,3.40746 -6.70751,3.79336 -9.80047,0.7004 -1.62969,-1.62969 -2.98138,-1.38584 -5.32854,0.96134 -1.72973,1.72971 -3.94835,3.14493 -4.93028,3.14493 -2.31909,0 -2.31411,-6.38378 0.006,-8.74814 0.9857,-1.0046 2.0672,-4.42214 2.40334,-7.59454 0.49911,-4.71023 -0.16516,-5.87846 -3.62257,-6.37031 -2.65501,-0.3777 -5.15756,0.87696 -6.71115,3.36467 -1.3626,2.18183 -3.35081,3.97493 -4.41828,3.98455 -1.06746,0.0101 -6.26684,2.14561 -11.55418,4.74654 -5.28733,2.60093 -11.12744,4.75603 -12.978,4.7891 -4.58432,0.0819 -4.25825,-5.09436 0.48067,-7.63055 4.65351,-2.49049 4.79481,-6.70287 0.77986,-23.25042 -2.84702,-11.73408 -3.41877,-12.61012 -7.69571,-11.79253 -3.33734,0.63798 -4.62016,0.0201 -4.62016,-2.22493 0,-1.70948 1.19186,-3.10814 2.64857,-3.10814 3.93217,0 7.20768,-4.82052 5.78849,-8.51881 -0.68343,-1.781 -2.42703,-2.78369 -3.87467,-2.22818 -2.99404,1.14891 -7.52501,-4.98709 -9.44279,-12.78778 -0.88972,-3.619 -0.47887,-5.58464 1.31178,-6.27583 1.88954,-0.72937 2.60728,-5.18633 2.60728,-16.19027 0,-8.35111 -0.55684,-15.74523 -1.2374,-16.43138 -0.68059,-0.68614 -0.0419,-5.73768 1.41918,-11.22566 1.46112,-5.48799 2.66786,-12.44397 2.6794,-15.45776 0.0154,-3.59841 2.16804,-7.62485 6.2715,-11.72838 11.96006,-11.96033 28.35934,-38.09194 28.35934,-45.18959 0,-1.74097 0.75378,-3.98734 1.67514,-4.99193 2.53115,-2.76001 4.33529,-25.48316 2.13141,-26.84521 -3.02385,-1.86886 -2.18125,-10.12087 1.8378,-17.99888 2.04689,-4.01225 8.5153,-11.91193 14.37425,-17.55483 12.10008,-11.65392 18.38607,-25.58299 14.67477,-32.51764 -1.49209,-2.78825 -1.48887,-7.02656 0.0115,-15.00083 4.21231,-22.3871 4.21906,-25.03998 0.094,-36.95961 -2.21978,-6.41426 -4.03597,-12.95664 -4.03597,-14.53863 0,-4.53164 6.43098,-3.34918 9.61334,1.76761 1.5862,2.5504 5.26383,7.60609 8.17247,11.23488 5.1476,6.42204 5.20573,6.76373 2.18141,12.8261 -2.28575,4.58189 -2.54015,6.79521 -0.96247,8.37289 2.83586,2.83586 5.57793,0.0473 11.75794,-11.95699 11.07673,-21.51595 14.30863,-27.0435 15.81206,-27.0435 2.40664,0 5.33728,9.0423 5.33728,16.46784 0,5.91589 0.55104,6.60713 5.28734,6.63252 6.74151,0.0361 14.90068,4.12473 14.90068,7.46679 0,1.4162 -3.0282,3.55365 -6.72933,4.74989 -4.72259,1.52637 -6.72934,3.3217 -6.72934,6.02032 0,2.33242 -2.0363,4.7359 -5.1756,6.10887 -3.67731,1.60828 -5.78637,4.53183 -7.28549,10.09914 -2.48589,9.23195 -7.04623,12.66327 -20.72997,15.59791 -11.16542,2.39455 -13.07883,6.21158 -6.22364,12.41545 2.5595,2.31631 3.84534,5.92175 3.84534,10.78218 0,12.26719 6.55653,21.67531 10.57467,15.17382 0.65356,-1.05746 4.24609,-1.92266 7.98345,-1.92266 5.79879,0 9.08653,-2.12873 22.42166,-14.51735 15.02215,-13.95588 15.90748,-14.46983 22.89271,-13.28968 3.99642,0.67525 7.26621,0.65679 7.26621,-0.0409 0,-4.01095 -10.46319,-18.29605 -13.40102,-18.29605 -2.31857,0 -3.82289,-2.00282 -4.66432,-6.20999 -0.99923,-4.99623 -0.42879,-6.82338 2.91864,-9.34831 3.18918,-2.40562 3.8634,-4.32251 2.88769,-8.21005 -0.99948,-3.98219 -0.57478,-5.07166 1.97699,-5.07166 1.78745,0 4.61583,-1.19399 6.28531,-2.65327 3.43632,-3.00373 25.14607,-2.04886 25.14607,1.10601 0,2.97082 -4.73924,6.8338 -12.21714,9.95827 -3.85524,1.61083 -7.00955,3.72046 -7.00955,4.68806 0,0.96762 3.67498,4.25627 8.16662,7.30812 11.40471,7.74897 14.97514,12.40064 12.73335,16.58948 -2.58193,4.82438 1.27753,11.07002 6.84066,11.07002 4.75873,0 8.08759,-4.78696 4.75928,-6.84397 -4.22568,-2.61159 -0.0101,-5.66177 8.0358,-5.81232 4.73182,-0.0886 12.19173,-2.06281 16.84663,-4.45841 7.48247,-3.8508 8.68819,-3.99731 11.55386,-1.4039 2.87722,2.60386 3.65395,2.42348 7.70952,-1.79025 3.51699,-3.65415 3.84031,-4.68583 1.46846,-4.68583 -4.50761,0 -10.07126,-9.20927 -7.26126,-12.01927 3.09732,-3.09733 2.74741,-6.5892 -0.7966,-7.94916 -1.87686,-0.72021 -4.94467,0.95983 -8.17134,4.47494 -6.53222,7.11611 -21.2567,12.37988 -27.73774,9.91579 -4.20264,-1.59783 -4.54304,-2.56849 -3.53672,-10.08461 1.03303,-7.71549 1.80207,-8.6434 10.64,-12.83813 9.04067,-4.29093 9.85293,-4.36586 15.92725,-1.4692 3.5204,1.67876 7.6692,3.05229 9.21951,3.05229 3.89572,0 3.54099,-5.75718 -0.5459,-8.85956 -2.91311,-2.21137 -2.9544,-2.56244 -0.30774,-2.61531 1.88779,-0.0377 4.04062,-3.18634 5.62898,-8.23248 1.41462,-4.49424 3.7161,-9.53726 5.11441,-11.20673 1.3983,-1.66947 2.54236,-4.42247 2.54236,-6.11776 0,-3.397 9.59927,-11.03487 13.86867,-11.03487 1.48523,0 4.37985,-1.2443 6.43258,-2.76512 3.64261,-2.69883 3.64558,-2.82925 0.12401,-5.43955 -2.81139,-2.08386 -3.17649,-3.48991 -1.65341,-6.36755 1.07511,-2.03121 1.64378,-10.61472 1.26372,-19.07446 -0.38003,-8.45974 0.0779,-18.19324 1.01774,-21.63001 1.34472,-4.91746 1.12735,-6.24867 -1.02028,-6.24867 -3.2466,0 -3.37375,-0.97079 -0.76543,-5.84445 1.66111,-3.1038 0.84658,-4.37388 -5.28734,-8.24473 -10.5556,-6.66116 -15.68058,-7.95408 -17.07942,-4.30874 -0.68246,1.77843 -3.44062,3.01657 -6.71989,3.01657 -3.5462,0 -5.56229,0.99836 -5.56229,2.75443 0,1.51495 -1.72839,3.30301 -3.84087,3.97349 -2.11248,0.67047 -4.37434,3.34458 -5.02636,5.94242 -0.65202,2.59786 -2.71369,5.79378 -4.58146,7.10202 -1.8678,1.30825 -3.72738,4.09996 -4.13244,6.2038 -0.51246,2.66194 -2.31452,3.852 -5.92577,3.91352 -8.07515,0.13747 -8.65257,2.56628 -1.8717,7.87311 6.12235,4.79146 11.91993,13.6421 11.91993,18.1971 0,1.4161 -1.49886,0.95967 -3.85712,-1.17452 -2.12142,-1.91986 -4.41105,-2.93675 -5.08804,-2.25974 -1.54471,1.54472 8.30729,16.64836 11.43859,17.53595 18.96456,5.37568 21.57762,6.57439 22.11705,10.14596 0.92087,6.09716 -8.02626,10.95336 -15.42726,8.37335 -3.25145,-1.13345 -8.20517,-2.06083 -11.00826,-2.06083 -2.80311,0 -6.06522,-0.96864 -7.24913,-2.15256 -2.65359,-2.65359 -15.98664,-5.78256 -27.14673,-6.37074 -6.6337,-0.34962 -9.54692,-1.72872 -14.22451,-6.7337 -5.78,-6.18459 -6.10305,-6.274 -18.57515,-5.14074 -6.98104,0.63431 -16.80253,1.67702 -21.8255,2.31713 -8.03912,1.02445 -9.13268,0.73555 -9.13268,-2.41265 0,-1.96704 1.73041,-4.6571 3.84534,-5.9779 5.88232,-3.67356 4.59792,-6.2142 -3.1416,-6.2142 -10.20501,0 -21.40648,3.85259 -22.41506,7.70932 -0.54371,2.07919 -3.51979,3.80446 -7.84763,4.54937 -3.83445,0.65999 -10.21624,1.74113 -14.18174,2.4025 -3.9655,0.66138 -7.9019,2.39178 -8.74755,3.84534 -2.64511,4.54659 -6.75354,2.89506 -8.10498,-3.2581 -1.14374,-5.20737 -0.29236,-6.89046 7.24389,-14.32026 9.29013,-9.1589 16.81864,-26.0933 16.81864,-37.83135 0,-3.68887 1.28844,-10.95426 2.8632,-16.14528 1.57475,-5.19103 2.87246,-12.56261 2.88401,-16.38131 0.0173,-5.63969 1.61469,-8.52713 8.51141,-15.38134 12.33879,-12.26272 25.54216,-23.18318 33.54386,-27.74401 3.84646,-2.19243 11.03852,-7.08123 15.98237,-10.864024 13.24473,-10.13425 50.28126,-27.75668 67.91791,-32.31617 34.44982,-8.90607 60.42092,-6.63801 88.99429,7.77191 11.91684,6.00981 19.26727,11.87253 37.42112,29.847114 12.42524,12.30253 22.59135,23.51919 22.59135,24.92585 0,1.40668 -1.9467,2.83409 -4.32601,3.17199 -3.29954,0.46861 -4.46729,2.07495 -4.92155,6.76995 -0.66583,6.88225 -6.36693,10.13748 -11.00822,6.28553 -4.58967,-3.80908 -8.58424,-0.73234 -8.58424,6.61178 0,3.67191 -0.7486,7.13887 -1.66353,7.70433 -0.91495,0.56546 -2.16517,4.11949 -2.77833,7.89783 -0.91616,5.64561 -0.0398,8.39478 4.91764,15.42806 3.31785,4.70705 7.16371,8.55829 8.54633,8.55829 5.68668,0 0.2918,5.87694 -12.38672,13.49359 -6.08108,3.6532 -8.05206,8.23694 -4.4888,10.43915 0.96793,0.59821 4.4461,-1.17266 7.72926,-3.93527 4.91574,-4.13631 6.4802,-4.59898 8.86331,-2.62117 2.57523,2.13729 2.57099,2.75851 -0.0386,5.64211 -3.24958,3.59075 -4.07135,19.28028 -1.00985,19.28028 1.05748,0 1.92267,-1.74895 1.92267,-3.88655 0,-4.85007 9.30628,-19.18546 12.45486,-19.18546 4.06339,0 8.81804,6.95326 10.02602,14.6622 0.64194,4.09667 2.33534,9.1551 3.76315,11.24096 1.4278,2.08585 2.59599,5.76625 2.59599,8.17864 0,3.75651 -0.88563,4.31612 -6.16842,3.89821 -5.80237,-0.45903 -6.24947,-0.0316 -7.53457,7.20268 -1.00174,5.63921 -0.6385,8.26008 1.36176,9.8253 1.50033,1.17405 2.7279,2.95887 2.7279,3.96628 0,2.46967 -9.7015,11.29219 -14.14329,12.86185 -2.7085,0.95714 -3.27406,2.43469 -2.3465,6.13035 1.99672,7.95551 -8.81333,14.99739 -11.65494,7.59225 -2.28873,-5.96429 -8.32968,-1.69613 -9.38336,6.62969 -0.87043,6.8777 -4.27931,12.16624 -6.82716,10.59157 -0.89146,-0.55094 -1.13347,-2.27182 -0.53778,-3.82417 0.5957,-1.55233 0.16458,-2.82242 -0.95819,-2.82242 -1.12268,0 -2.60154,2.98669 -3.28637,6.63706 -0.7376,3.93173 -3.12421,7.86832 -5.85512,9.65767 -2.53551,1.66134 -4.61,4.29845 -4.61,5.86027 0,1.56183 -0.68261,2.83968 -1.51691,2.83968 -0.83429,0 -1.65035,8.32352 -1.81338,18.4967 -0.20079,12.5267 -1.30064,20.61281 -3.40763,25.05296 -3.38551,7.13445 -4.38735,36.45953 -1.34937,39.49753 2.53749,2.53747 12.03244,-1.70003 19.11383,-8.5303 3.42092,-3.29963 6.67593,-5.54329 7.23332,-4.98587 0.90487,0.90484 -0.74942,5.3523 -9.53745,25.64105 -4.16351,9.61222 -5.25148,19.64066 -2.59264,23.89815 1.91431,3.06529 1.92922,4.38127 0.0708,6.23975 -1.85847,1.85846 -2.35519,1.50648 -2.35519,-1.66898 0,-2.2133 -1.30486,-4.52488 -2.89969,-5.13688 -4.00769,-1.53789 -12.36105,15.70331 -8.70346,17.96383 1.94298,1.20082 1.88101,1.86043 -0.2989,3.18153 -1.51252,0.91665 -4.1216,3.67687 -5.79794,6.13382 -1.79471,2.63053 -3.55631,3.64454 -4.2845,2.46633 -1.25856,-2.03641 -11.06191,-0.9438 -16.55337,1.84492 -2.55658,1.29834 -2.89943,-0.33609 -2.47063,-11.78038 0.44173,-11.78988 -0.0298,-13.85728 -4.18337,-18.33901 l -4.68126,-5.05115 -1.86463,4.54405 c -1.02554,2.49922 -2.40252,8.65373 -3.05994,13.67671 -0.77845,5.94779 -2.12845,9.13267 -3.87112,9.13267 -2.40478,0 -6.66387,10.70853 -6.69117,16.82334 -0.0153,3.65802 6.56802,2.87007 12.04992,-1.442 2.68869,-2.11494 5.85581,-3.84534 7.038,-3.84534 4.01993,0 -3.25769,10.30888 -16.15951,22.89022 -6.94607,6.77354 -13.10959,14.22941 -13.6967,16.5686 -0.58709,2.33918 -3.59802,6.12399 -6.69094,8.4107 -3.09294,2.28671 -5.62351,5.38654 -5.62351,6.88855 0,1.50199 -1.47831,3.5582 -3.28513,4.56934 -1.80681,1.01115 -3.32084,3.86604 -3.36467,6.34421 -0.0439,2.47818 -0.80723,4.66444 -1.69665,4.8584 -0.88938,0.19397 -2.61978,1.71816 -3.84532,3.38713 -1.22554,1.66897 -4.17819,3.40793 -6.56147,3.86437 -5.74078,1.09944 -8.14923,2.70462 -8.23325,5.48735 -0.14363,4.75616 -8.91032,12.81146 -17.07983,15.69383 -4.66566,1.64614 -9.6865,4.71117 -11.1574,6.81118 -1.64887,2.35409 -4.86748,3.8182 -8.3937,3.8182 -3.46341,0 -6.18383,1.21051 -6.89701,3.069 -0.86295,2.2488 -2.69423,2.76568 -6.85245,1.93403 -4.65919,-0.93184 -6.57876,-0.10482 -10.72614,4.62169 -2.77823,3.16613 -6.54837,5.75662 -8.37806,5.75662 -6.57918,0 -13.12099,4.36499 -13.12099,8.75493 0,2.36078 -1.30529,4.79323 -2.90064,5.40542 -1.59535,0.61218 -3.83209,3.15738 -4.9705,5.65593 -1.13843,2.49859 -4.50894,5.98367 -7.49002,7.74465 z m -146.143678,-284.2371 0,316.27887 77.407848,0 77.40785,0 13.43821,-15.71056 c 20.19628,-23.6114 29.7809,-33.57366 29.7809,-30.95434 0,1.29519 2.16653,3.77447 4.81451,5.50949 4.08756,2.67827 6.14877,2.81863 13.65073,0.92962 5.19903,-1.30914 9.74641,-1.52638 11.04748,-0.52781 1.21622,0.93346 5.95108,1.3034 10.52192,0.82213 6.42747,-0.67674 8.78466,-1.91542 10.40263,-5.46645 2.47945,-5.4418 4.45298,-5.79947 6.98959,-1.26679 1.75361,3.13352 2.0833,3.12308 5.73503,-0.18168 3.13435,-2.83631 6.36722,-3.37982 16.92365,-2.84399 11.97374,0.60777 13.22836,0.30303 15.22346,-3.6977 1.19585,-2.39803 2.65151,-4.83728 3.23477,-5.42056 1.53965,-1.53963 9.12563,3.58303 9.12563,6.16234 0,1.20237 1.16604,3.15381 2.5912,4.3366 1.42516,1.18277 2.66601,4.78012 2.75734,7.99411 0.0913,3.21399 1.19652,8.96571 2.4559,12.78162 1.30247,3.94634 1.83146,11.37854 1.22691,17.23601 l -1.06284,10.29796 6.51631,0 c 5.90296,0 6.6991,-0.67864 8.45816,-7.20999 1.09909,-4.0809 7.49255,-13.88546 14.73157,-22.59136 7.03435,-8.45973 15.32004,-19.05844 18.41263,-23.55268 3.09261,-4.49423 6.4298,-8.17133 7.41595,-8.17133 0.98615,0 4.9919,-4.28479 8.90165,-9.52175 3.90977,-5.23698 9.40431,-10.47266 12.2101,-11.63486 2.80579,-1.16218 8.29564,-5.93436 12.19966,-10.60483 6.50186,-7.77829 7.49833,-8.30945 11.86055,-6.32189 5.75355,2.6215 6.18975,8.43249 1.04532,13.92606 -3.61821,3.86376 -7.02607,9.68736 -23.13725,39.53861 -4.28047,7.931 -12.1022,21.19264 -17.38157,29.4703 -5.27938,8.27766 -9.59889,15.41557 -9.59889,15.86201 0,0.44645 5.44712,0.81171 12.10468,0.81171 l 12.1047,0 14.33082,-12.978 c 7.88195,-7.13791 20.45638,-19.25072 27.9432,-26.91735 15.53057,-15.90362 21.95936,-18.15514 21.95927,-7.69068 -4e-5,4.78317 -1.51025,7.45367 -6.43936,11.3866 -3.54163,2.82587 -7.96196,8.44967 -9.82297,12.49734 -1.86101,4.04768 -4.58709,9.87166 -6.05798,12.94215 -5.47453,11.42826 -11.81683,10.75994 102.11109,10.75994 l 104.7854,0 0,-316.27887 0,-316.278874 -319.16288,0 -319.162878,0 0,316.278874 z"
       style="fill:#000000" />
  </g>
</svg>
