<?xml version="1.0" encoding="UTF-8" standalone="no"?>
<!-- Created with Inkscape (http://www.inkscape.org/) -->

<svg
   xmlns:dc="http://purl.org/dc/elements/1.1/"
   xmlns:cc="http://creativecommons.org/ns#"
   xmlns:rdf="http://www.w3.org/1999/02/22-rdf-syntax-ns#"
   xmlns:svg="http://www.w3.org/2000/svg"
   xmlns="http://www.w3.org/2000/svg"
   xmlns:sodipodi="http://sodipodi.sourceforge.net/DTD/sodipodi-0.dtd"
   xmlns:inkscape="http://www.inkscape.org/namespaces/inkscape"
   width="744.09448819"
   height="1052.3622047"
   id="svg2"
   version="1.1"
   inkscape:version="0.48.2 r9819"
   sodipodi:docname="tree_of_life.svg">
  <defs
     id="defs4" />
  <sodipodi:namedview
     id="base"
     pagecolor="#ffffff"
     bordercolor="#666666"
     borderopacity="1.0"
     inkscape:pageopacity="0.0"
     inkscape:pageshadow="2"
     inkscape:zoom="0.98994949"
     inkscape:cx="472.96686"
     inkscape:cy="518.64463"
     inkscape:document-units="px"
     inkscape:current-layer="layer1"
     showgrid="false"
     inkscape:window-width="1440"
     inkscape:window-height="846"
     inkscape:window-x="0"
     inkscape:window-y="26"
     inkscape:window-maximized="1" />
  <metadata
     id="metadata7">
    <rdf:RDF>
      <cc:Work
         rdf:about="">
        <dc:format>image/svg+xml</dc:format>
        <dc:type
           rdf:resource="http://purl.org/dc/dcmitype/StillImage" />
        <dc:title />
      </cc:Work>
    </rdf:RDF>
  </metadata>
  <g
     inkscape:label="Layer 1"
     inkscape:groupmode="layer"
     id="layer1">
    <path
       style="fill:#000000"
       d="m 542.36452,905.68982 c -3.18681,-4.9758 -7.88121,-12.2883 -10.43201,-16.25 -6.46033,-10.03368 -35.0486,-54.86797 -47.6339,-74.7031 -5.75805,-9.075 -10.84072,-16.90325 -11.29483,-17.3961 -1.18191,-1.28276 0.4046,3.56722 14.48413,44.278 6.92033,20.01004 12.58242,37.48053 12.58242,38.82332 0,2.72917 -2.64443,2.91735 -4.14242,0.29478 -0.47124,-0.825 -8.54586,-24 -17.94361,-51.5 -15.0097,-43.92187 -18.30889,-52.55281 -27.13983,-71 -8.67408,-18.11951 -47.54647,-96.50147 -48.2412,-97.27315 -0.35919,-0.39899 -46.8811,17.83069 -47.86605,18.75638 -0.74621,0.70132 8.31424,27.90261 37.91968,113.84247 5.17739,15.02913 9.41343,27.74163 9.41343,28.25 0,0.50836 -1.07129,0.9243 -2.38065,0.9243 -2.2104,0 -2.91956,-1.59115 -9.91662,-22.25 -4.14479,-12.2375 -12.95221,-38 -19.57204,-57.25 -6.61983,-19.25 -14.10345,-41.09709 -16.63027,-48.54909 l -4.59422,-13.5491 -6.4531,0.9644 c -5.01031,0.74878 -6.4531,1.34211 -6.4531,2.65375 0,5.75079 12.53922,59.85985 20.6202,88.98004 10.79691,38.90711 23.50366,84.176 26.42892,94.15524 2.51373,8.57533 2.51231,10.84476 -0.007,10.84476 -2.34062,0 0.32097,8.70358 -25.07597,-82 -4.75838,-16.99427 -7.10428,-23.92282 -5.58664,-16.5 0.33735,1.65 1.72873,11.775 3.09196,22.5 9.94038,78.2045 9.46869,73 6.6162,73 -2.23966,0 -1.91779,1.65114 -6.14059,-31.5 -4.95574,-38.90505 -6.83184,-53.60042 -8.90474,-69.75 -1.07659,-8.3875 -2.39059,-18.625 -2.92001,-22.75 -0.52941,-4.125 -3.81053,-21.1125 -7.29136,-37.75 l -6.32878,-30.25 -7.03959,0 -7.03959,0 1.26912,14.75 c 0.69802,8.1125 2.1734,25.325 3.27864,38.25 1.10523,12.925 2.70502,31.375 3.55509,41 3.91407,44.31727 4.43419,50.82843 4.45341,55.75 0.0179,4.59017 -0.23086,5.25 -1.9795,5.25 -1.39743,0 -2.01015,-0.67789 -2.03368,-2.25 -0.0185,-1.2375 -0.47392,-6.975 -1.012,-12.75 -0.9955,-10.68416 -3.49801,-39.48428 -6.95139,-80 -1.05479,-12.375 -2.60624,-30.375 -3.44767,-40 -0.84143,-9.625 -1.53558,-18.2875 -1.54256,-19.25 -0.01,-1.36377 -0.86895,-1.75 -3.89238,-1.75 l -3.87967,0 -0.7444,66.5 c -0.73738,65.87359 -0.76347,66.5 -2.77046,66.5 -2.01978,0 -2.02441,-0.20601 -1.49161,-66.40773 l 0.53445,-66.40772 -3.79712,-0.96381 -3.79713,-0.96382 -0.64072,3.62154 c -0.93518,5.28583 -12.39644,64.7437 -13.6132,70.62154 -0.56927,2.75 -1.24283,6.0125 -1.4968,7.25 -0.62605,3.05053 -4.42366,3.11518 -4.42366,0.0753 0,-1.19608 2.72327,-16.15858 6.05172,-33.25 3.32844,-17.09142 6.73439,-34.67531 7.56878,-39.07531 0.83438,-4.4 1.68266,-8.52515 1.88505,-9.16701 0.33165,-1.05178 -23.34022,-11.34626 -26.06846,-11.33671 -1.39398,0.005 -5.37553,4.36257 -9.24418,10.11749 -2.43324,3.61963 -4.1247,8.84482 -7.85004,24.25 -3.21091,13.27886 -5.17841,19.63624 -6.07684,19.63624 -2.46761,0 -2.56939,-3.17324 -0.40954,-12.76851 1.18321,-5.2565 1.98038,-9.72819 1.77148,-9.93708 -0.20889,-0.20889 -1.32041,1.21441 -2.47005,3.16289 -2.16505,3.6695 -4.80654,4.62137 -5.78058,2.08306 -0.30806,-0.8028 1.73106,-5.25279 4.53139,-9.88888 2.80032,-4.63608 5.0915,-8.75919 5.0915,-9.16248 0,-0.40328 -2.88166,1.79671 -6.40368,4.88888 -6.46779,5.6784 -10.59683,7.18732 -10.59575,3.87212 3.3e-4,-1.01587 5.83003,-6.70313 13.89678,-13.5572 15.12242,-12.84908 17.74006,-15.38873 16.81488,-16.3139 -1.11558,-1.11558 -13.1047,6.34999 -21.71223,13.52012 -4.95267,4.1256 -9.439,7.08481 -10.75,7.09076 -3.56752,0.0162 -2.64731,-3.08225 2.05161,-6.90802 2.30912,-1.88003 3.31874,-3.09629 2.2436,-2.7028 -1.07513,0.39349 -3.88763,0.98037 -6.25,1.30416 -3.79279,0.51986 -4.29521,0.36069 -4.29521,-1.36078 0,-1.61095 1.69324,-2.42811 9.75,-4.70536 10.67932,-3.01852 22.47515,-8.4393 21.93084,-10.07833 -0.21093,-0.63516 -5.84877,-1.14643 -14.51288,-1.31611 -13.34178,-0.26127 -14.16796,-0.39248 -14.16796,-2.25 0,-1.85067 0.7208,-1.97254 11.66661,-1.97254 l 11.66661,0 -3.91661,-3.39745 c -2.88947,-2.50647 -5.22787,-3.56428 -8.91661,-4.03359 -12.6012,-1.60321 -16.5,-2.74609 -16.5,-4.83675 0,-1.84129 0.44852,-1.95486 5.41492,-1.37116 2.9782,0.35003 6.2407,0.92967 7.25,1.28809 1.75868,0.62453 -15.85221,-12.45319 -26.50568,-19.68293 -5.06807,-3.43933 -6.55786,-6.49228 -3.70278,-7.58788 0.8636,-0.33139 7.17302,3.54394 15.5,9.52031 7.72395,5.54356 14.04354,9.73865 14.04354,9.32242 0,-0.41624 -1.15429,-2.45548 -2.56509,-4.53167 -2.76936,-4.07548 -2.87993,-6.98 -0.28475,-7.47979 1.14206,-0.21994 3.5238,2.87397 7.98852,10.37715 5.25407,8.82973 7.84083,11.98992 14.86132,18.15569 9.79048,8.59853 12.44933,10.07003 32.64459,18.06663 19.06809,7.55029 21.00808,7.99122 38.35541,8.71764 20.62803,0.86381 27.78318,-0.73788 60,-13.43109 24.38611,-9.60796 25.68651,-10.25538 29.7698,-14.82122 2.34839,-2.62592 5.44012,-7.0244 6.8705,-9.7744 1.43039,-2.75 5.28384,-9.83403 8.56323,-15.74229 l 5.96253,-10.74229 -1.57534,-29.75771 c -0.86644,-16.36674 -2.0288,-38.64521 -2.58303,-49.50771 -3.20243,-62.76538 -6.71283,-127.95702 -7.61204,-141.36299 l -0.67833,-10.11299 -10.60866,-3.08253 c -5.83476,-1.69539 -16.90866,-5.3294 -24.60866,-8.07557 -28.69348,-10.23342 -58.57121,-20.3771 -58.91714,-20.00274 -0.1966,0.21275 -4.436,6.73523 -9.4209,14.4944 -7.31603,11.38767 -10.05346,16.786 -14.19847,28 -12.9648,35.0752 -12.44618,33.8738 -14.76876,34.21197 -3.01408,0.43885 -2.84961,-0.77171 1.81214,-13.33808 2.20378,-5.94058 3.82446,-10.98347 3.6015,-11.20643 -0.22295,-0.22296 -2.09001,2.32395 -4.14901,5.65979 -2.40751,3.90048 -4.40671,6.06517 -5.6015,6.06517 -3.0435,0 -2.21158,-3.52479 2.5448,-10.78226 2.42146,-3.69476 11.3955,-17.71843 19.9423,-31.16372 l 15.53963,-24.44599 -2.69229,-1.60708 c -1.48077,-0.8839 -5.6173,-3.22694 -9.1923,-5.20677 l -6.5,-3.59969 -4.62575,4.15275 c -2.98979,2.68408 -7.88581,9.54612 -13.84373,19.40276 -6.71531,11.10965 -9.73553,15.25 -11.12425,15.25 -3.01273,0 -2.30627,-2.90898 2.63459,-10.84842 4.82259,-7.7494 4.26493,-8.09406 -2.67226,-1.65158 -9.0396,8.39495 -14.31338,12.5 -16.05883,12.5 -3.05103,0 -2.06964,-3.56696 1.94023,-7.05197 5.62798,-4.89133 17.41132,-15.33941 28.87667,-25.60443 l 10.2271,-9.15639 -6.06013,-4.25094 c -4.9285,-3.45715 -6.38686,-4.04689 -7.80983,-3.15823 -0.96233,0.60098 -15.55539,11.24679 -32.42902,23.65733 -29.47003,21.6752 -35.55479,25.29582 -35.55479,21.15623 0,-1.29002 6.21819,-6.04544 50.27201,-38.44595 l 14.77202,-10.86445 -5.61643,-4.62375 -5.61643,-4.62375 -6.15559,4.3804 c -52.69928,37.50157 -84.50511,59.53437 -85.97513,59.5574 -1.31028,0.0205 -1.73011,-0.58633 -1.5,-2.1682 0.2353,-1.61749 11.56414,-10.13648 42.96583,-32.30916 23.45545,-16.56185 43.66059,-30.78594 44.90031,-31.60908 2.19849,-1.45974 2.21053,-1.56301 0.48871,-4.19084 -0.97093,-1.48182 -2.10243,-2.69422 -2.51445,-2.69422 -0.68302,0 -30.42653,15.96506 -52.52085,28.19097 -10.39885,5.75421 -15.51137,7.13799 -15.47997,4.18987 0.0151,-1.42064 5.45922,-4.79572 22.25,-13.79395 12.22649,-6.55222 27.04947,-14.5622 32.93997,-17.79997 l 10.70999,-5.88685 -1.68034,-3.70003 c -0.92419,-2.03502 -1.73486,-3.81621 -1.80149,-3.9582 -0.0666,-0.14199 -3.45498,1.26919 -7.52966,3.13595 -4.07467,1.86677 -18.78253,8.62044 -32.68412,15.00817 -25.29825,11.62443 -30.2289,13.23386 -30.2195,9.86404 0.004,-1.28868 4.15546,-3.63244 15.75,-8.89101 44.28708,-20.08587 52.24512,-23.80043 52.24512,-24.38633 0,-1.96981 -15.48748,1.38203 -46.89036,10.14813 -19.4647,5.43357 -36.6772,9.87921 -38.25,9.87921 -4.28477,0 -3.96827,-3.56573 0.39036,-4.398 1.7875,-0.34131 14.95,-3.97952 29.25,-8.08491 27.33552,-7.84775 27.33076,-7.83171 1.5,-5.04949 -7.425,0.79974 -17.4375,1.75858 -22.25,2.13076 -8.48203,0.65596 -8.75,0.61122 -8.75,-1.46084 0,-1.4031 0.6275,-2.13752 1.82633,-2.13752 3.72447,0 23.12136,-2.15898 25.77644,-2.86905 2.00314,-0.53573 -0.48803,-1.09065 -9.1766,-2.04414 -32.45939,-3.56211 -31.87807,-3.46317 -32.26709,-5.49151 -0.34423,-1.79478 0.14563,-1.86787 8.48781,-1.26648 4.86921,0.35102 17.85311,1.81069 28.85311,3.24371 19.72841,2.57011 52.00615,4.2702 57.04805,3.00477 5.25416,-1.31871 2.08596,-3.68377 -14.04805,-10.48686 -15.2097,-6.41335 -16.59272,-6.80348 -28,-7.89835 -6.6,-0.63347 -16.5,-1.63194 -22,-2.21884 -5.5,-0.58689 -18.55,-1.94715 -29,-3.0228 -28.50822,-2.93443 -27.50001,-2.74538 -27.50001,-5.15633 0,-2.35115 -1.55685,-2.39145 27.00001,0.69889 33.39304,3.6137 52.36027,5.48005 52.65876,5.18157 1.30372,-1.30373 -17.37656,-7.3221 -53.65876,-17.28765 -23.37501,-6.42035 -44.4125,-12.13474 -46.75,-12.69863 -3.07983,-0.74297 -4.250001,-1.52954 -4.250001,-2.85678 0,-2.13164 3.432931,-2.44016 9.006601,-0.80943 15.21038,4.45022 65.27909,18.02555 65.53569,17.76896 0.17768,-0.17768 -14.27028,-8.19086 -32.10657,-17.80705 -31.48894,-16.97684 -35.53236,-19.76396 -30.1706,-20.79654 1.59241,-0.30667 8.90209,3.50229 57.23488,29.8242 34.08463,18.56241 49.49815,26.46539 62.49405,32.04259 7.42172,3.18505 13.69786,5.58718 13.94696,5.33807 0.7982,-0.79819 -4.03138,-4.88663 -22.49918,-19.04652 -13.44921,-10.31196 -21.67325,-15.76001 -32.22225,-21.3458 -9.8796,-5.23133 -14.17247,-8.02936 -14.19183,-9.25 -0.045,-2.8352 3.80429,-2.08595 11.87002,2.31046 l 7.39778,4.03234 -7.10268,-7.7964 c -3.90648,-4.28802 -9.82297,-10.69904 -13.14777,-14.2467 -6.28675,-6.70816 -7.17632,-8.67838 -4.39946,-9.74396 1.18521,-0.45481 3.85173,1.72232 9.53049,7.78138 l 7.88485,8.41288 -9.65626,-15 c -5.31094,-8.25 -10.27466,-15.88763 -11.03049,-16.97251 -2.10332,-3.01901 -1.76761,-5.72831 0.66257,-5.34704 1.42113,0.22296 8.14665,9.53879 22.25,30.81955 l 20.2132,30.5 17,13.22198 c 13.03363,10.13708 17.06815,12.81074 17.29211,11.45939 0.62708,-3.78376 -6.88877,-20.32242 -13.39774,-29.48175 -20.39568,-28.70054 -23.39437,-33.16775 -23.39437,-34.85107 0,-1.10826 0.71546,-1.84855 1.78655,-1.84855 1.67703,0 4.8381,3.74393 11.6094,13.75 5.9103,8.73376 5.31785,7.27969 -12.30916,-30.21115 -7.74773,-16.47864 -14.08679,-30.57244 -14.08679,-31.31956 0,-0.82976 0.85625,-1.23404 2.20027,-1.03884 1.77928,0.25841 3.73709,3.60743 10.23249,17.50372 4.41772,9.4513 8.1713,17.0451 8.34128,16.87512 0.16998,-0.16998 -1.73464,-8.44721 -4.23249,-18.39384 -2.49785,-9.94663 -4.54155,-19.00293 -4.54155,-20.12512 0,-1.98328 2.37941,-2.85349 3.37917,-1.23584 0.27346,0.44247 3.94605,14.46447 8.16131,31.16001 7.72828,30.60973 15.43997,55.26863 18.1497,58.0355 1.2931,1.32037 1.82057,-4.42203 1.03179,-12.5 -0.78878,-8.07797 -1.43766,-31.41931 -3.52172,-46.88523 -1.06831,-7.92802 -1.95521,-13.78661 -4.59219,-14.45897 -3.75918,-1.36081 -4.97229,-2.25773 -4.5825,-3.722 0.15334,-0.96013 3.31922,-0.51339 8.47444,0.77484 4.70944,1.17684 8.08852,2.42298 8.08852,4.15931 0,1.15108 -3.4009,0.7227 -4.27888,0.35531 -2.41401,-1.01016 -1.73381,-1.11658 0.78032,19.03652 1.26457,10.1367 2.86383,12.06496 2.89473,3.49022 0.0131,-3.64762 0.31333,-4.25 2.11793,-4.25 2.02187,0 2.0798,0.336 1.50867,8.75 -0.32667,4.8125 -0.87502,18.9393 -1.21856,31.3929 -0.55511,20.1236 -0.42621,23.23894 1.1586,28 l 1.7832,5.3571 1.33517,-5.86279 c 1.26436,-5.55186 6.90084,-44.13795 18.27947,-125.13721 5.90825,-42.058088 5.80643,-41.499998 7.57127,-41.499998 2.33292,0 2.66151,1.81975 1.58417,8.77328 -0.57321,3.69969 -2.61515,17.976718 -4.53764,31.726718 -1.9225,13.75 -3.73245,26.575 -4.02212,28.5 -2.23555,14.85654 -9.5369,67.29861 -9.50571,68.27489 0.10383,3.24972 3.98554,-8.17779 10.96316,-32.27489 6.81224,-23.52591 7.91608,-26.53587 9.83556,-26.81955 2.79768,-0.41349 2.76017,-0.006 -1.31547,14.29106 -1.87699,6.58433 -3.30274,12.08147 -3.16835,12.21586 0.1344,0.1344 9.86611,-17.06528 21.62604,-38.22151 15.94675,-28.68836 21.84408,-38.46586 23.2008,-38.46586 1.12361,0 1.81912,0.72994 1.81912,1.90919 0,1.05006 -11.97169,23.43756 -26.60376,49.75001 -29.58663,53.2048 -37.86062,71.33106 -42.35425,92.78769 -3.00047,14.32696 -2.417,21.18702 2.97503,34.97806 7.31602,18.71197 15.06985,27.61927 36.48298,41.91025 20.93017,13.96864 28.3678,17.45249 62.5,29.27553 17.875,6.19172 36.325,12.60981 41,14.26243 4.675,1.65262 11.66594,3.8768 15.53542,4.94263 l 7.03541,1.93786 5.46459,-6.25956 c 3.00552,-3.44275 10.01479,-11.37483 15.57615,-17.62682 7.56227,-8.50138 11.53313,-14.03579 15.75,-21.9517 3.10114,-5.82144 5.63843,-11.01192 5.63843,-11.5344 0,-0.52247 -1.2375,-1.65398 -2.75,-2.51446 -38.1197,-21.68668 -49.25,-28.48554 -49.25,-30.08398 0,-2.95634 3.40687,-2.09549 12.21932,3.08757 32.00948,18.82644 42.01653,24.17885 43.26634,23.1416 0.71454,-0.59301 1.83228,-2.36526 2.48386,-3.93832 1.14063,-2.75373 0.82718,-3.29484 -8.42728,-14.54798 -5.28658,-6.42833 -12.40878,-13.95225 -15.8271,-16.71981 -3.41833,-2.76757 -7.67763,-6.21856 -9.46511,-7.66887 -3.93726,-3.19457 -4.32516,-6.13692 -0.80905,-6.13692 1.34254,0 2.69879,0.41713 3.01388,0.92696 0.31509,0.50983 2.35285,2.33672 4.52836,4.05975 l 3.95546,3.13279 -5.56798,-11.80975 c -3.06239,-6.49536 -7.0387,-14.95975 -8.83624,-18.80975 -1.79754,-3.85 -4.67816,-9.96858 -6.40136,-13.59684 -3.68938,-7.76812 -3.82498,-8.90316 -1.06357,-8.90316 2.13766,0 6.64141,8.67391 23.48455,45.22963 4.8068,10.4325 8.07456,15.91645 13.60733,22.83583 4.00475,5.00841 7.4245,8.67681 7.59944,8.15199 0.17494,-0.52482 -2.91542,-12.60094 -6.86746,-26.83583 -3.95204,-14.23489 -7.23229,-26.78162 -7.28946,-27.88162 -0.0668,-1.2855 0.61057,-2.09906 1.89607,-2.27729 1.79285,-0.24857 2.5598,1.77115 7.40477,19.5 2.97262,10.87751 6.60581,24.46236 8.07375,30.18855 l 2.66898,10.41127 3.67625,-6.57375 3.67625,-6.57375 0.004,-12.33751 c 0.002,-6.78564 0.29667,-18.07502 0.65432,-25.08752 0.59781,-11.72148 0.80653,-12.75 2.58734,-12.75 1.88009,0 1.91543,0.6543 1.20135,22.24222 -0.82735,25.01244 -1.13824,24.30398 6.34011,14.44796 3.12384,-4.11703 4.57618,-7.56799 7.02407,-16.69018 5.15936,-19.22658 17.09512,-62.87011 18.76235,-68.60519 1.53143,-5.26791 3.83419,-7.10167 5.02409,-4.00084 0.2942,0.76668 -2.43076,12.08084 -6.05548,25.14258 -3.62471,13.06174 -6.41498,23.92402 -6.20059,24.1384 0.21439,0.21439 2.25865,-2.66227 4.54281,-6.39258 2.28416,-3.7303 4.79797,-7.62631 5.58625,-8.6578 1.59667,-2.08929 4.52932,-1.56208 4.52932,0.81426 0,0.82588 -4.65258,8.8275 -10.33907,17.78138 -6.45296,10.16076 -10.79235,18.11088 -11.54503,21.15143 -0.66327,2.6794 -0.99153,5.08606 -0.72946,5.34813 0.94731,0.94731 10.2748,-7.0518 17.61356,-15.10511 4.125,-4.52664 15.5423,-17.09175 25.37178,-27.92246 17.09056,-18.83134 21.62828,-22.59413 21.62828,-17.93463 0,0.96666 -3.4875,5.61306 -7.75,10.32532 -4.2625,4.71227 -13.95723,15.39637 -21.54385,23.74244 -7.58662,8.34607 -13.58133,15.17467 -13.32159,15.17467 0.25975,0 6.19334,-2.31548 13.18576,-5.14552 9.79148,-3.9629 22.37084,-10.86841 54.732,-30.04543 23.11019,-13.69495 42.62133,-24.66859 43.3581,-24.38587 4.40701,1.69113 0.52278,4.52841 -34.19841,24.98057 -19.51831,11.49706 -35.31345,21.07814 -35.10031,21.29128 0.21314,0.21314 14.50645,-2.38101 31.76291,-5.76478 17.25647,-3.38376 33.51289,-6.38459 36.12539,-6.6685 4.243,-0.46111 4.75,-0.30459 4.75,1.46637 0,2.29861 1.31933,1.98232 -47,11.26726 -42.55425,8.17713 -39.48519,7.40122 -57.74908,14.59999 -8.93699,3.52255 -16.50858,6.40463 -16.82574,6.40463 -0.31716,0 -4.95485,3.35597 -10.30598,7.4577 -10.55435,8.09011 -19.81519,18.81792 -26.7974,31.0423 -7.15429,12.52565 -18.37046,34.5011 -17.58644,34.4565 1.87733,-0.10681 14.02679,-12.59073 24.19201,-24.85801 l 11.1051,-13.40151 19.23376,-12.23086 19.23377,-12.23086 16.5,-2.61504 c 9.075,-1.43827 20.325,-3.27926 25,-4.09109 7.92227,-1.37574 22.06451,-2.64266 46.75,-4.18808 9.91799,-0.6209 10.25,-0.57437 10.25,1.43667 0,2.36064 -2.41865,2.82739 -21,4.05265 l -10.5,0.69237 16.87074,2.47149 c 16.49743,2.41679 19.52047,3.51456 16.8986,6.13643 -0.66163,0.66163 -9.18673,-0.19849 -25.38278,-2.56093 -13.41261,-1.95643 -25.51156,-3.62668 -26.88656,-3.71166 -1.375,-0.085 -9.475,0.91282 -18,2.21735 l -15.5,2.37187 15.5,1.69944 c 54.38048,5.96237 52,5.59134 52,8.10491 0,1.88911 -0.41812,1.97919 -6.25,1.34649 -3.4375,-0.37293 -21.55,-2.40673 -40.25,-4.51956 l -34,-3.84151 -3.73881,2.05932 c -2.05635,1.13263 -3.63135,2.16353 -3.5,2.2909 0.21514,0.20861 25.83995,5.07825 49.23362,9.35616 6.60994,1.20874 9.07714,2.07242 9.30536,3.25747 0.17081,0.88694 -0.0945,1.86297 -0.58962,2.16896 -0.4951,0.30599 -6.70752,-0.53062 -13.80537,-1.85915 -7.09785,-1.32852 -21.1637,-3.96025 -31.25745,-5.8483 l -18.35226,-3.4328 -8.93555,5.57428 c -5.64673,3.52261 -8.46155,5.82266 -7.64773,6.24913 0.70829,0.37117 12.0325,1.97358 25.16489,3.56091 23.6605,2.85988 26.7069,3.70208 23.82294,6.58604 -0.75407,0.75407 -5.83546,0.44181 -17.38278,-1.0682 -8.97448,-1.17356 -17.44224,-2.12011 -18.81724,-2.10343 -2.15533,0.0261 16.63737,7.57633 42,16.874 7.25823,2.6608 10.03468,5.37964 6.77211,6.63161 -0.75664,0.29034 -16.4274,-5.16434 -34.82391,-12.12152 -18.39651,-6.95719 -33.97247,-12.70861 -34.61324,-12.78094 -0.94262,-0.10639 -20.33496,21.69225 -20.33496,22.85823 0,1.72398 30.77607,10.24214 45,12.45505 3.025,0.47061 9.55,1.81972 14.5,2.998 4.95,1.17829 13.05,3.07148 18,4.2071 4.95,1.13561 10.35,2.38056 12,2.76654 3.2185,0.75291 5.05967,5.08358 2.16127,5.08358 -0.81281,0 -9.38026,-1.8 -19.03876,-4 -9.65851,-2.2 -17.91228,-3.99574 -18.34172,-3.99054 -0.42943,0.005 1.13171,1.15571 3.46921,2.55668 2.66818,1.59916 4.25,3.27051 4.25,4.49054 0,3.30601 -3.38161,2.26701 -13.62464,-4.18614 -5.35108,-3.37121 -11.11211,-6.47753 -12.8023,-6.90295 -1.69018,-0.42542 -4.4075,-1.07507 -6.03849,-1.44366 -1.81521,-0.41023 6.33021,5.95325 21,16.40592 15.61711,11.12766 24.07675,17.77175 24.28498,19.07312 0.6223,3.88906 -3.73054,2.0497 -16.0618,-6.78714 -17.54263,-12.57142 -19.38849,-13.8099 -18.14863,-12.17676 12.21939,16.09536 14.66478,20.96093 10.53474,20.96093 -1.25976,0 -5.51696,-5.17511 -13.25,-16.1069 -8.93014,-12.62408 -12.24641,-16.54191 -15.33662,-18.11866 l -3.94276,-2.01177 1.52508,2.36867 c 30.35357,47.14322 32.42892,50.89733 28.11044,50.84913 -1.19412,-0.0133 -7.78528,-9.48943 -20.75,-29.83228 l -19,-29.81274 -6.27587,-2.2671 -6.27586,-2.2671 -5.22414,4.49993 c -14.64094,12.61132 -18.93348,16.55316 -22.2098,20.39526 l -3.57849,4.19644 9.04776,18.07435 c 7.41742,14.8175 10.59377,19.96799 17.62761,28.58341 8.37287,10.25554 9.74293,13.49642 5.67017,13.41277 -0.98337,-0.0202 -4.00176,-2.91417 -6.73789,-6.46015 -2.72608,-3.53297 -5.05667,-6.32341 -5.17909,-6.20099 -0.12242,0.12242 0.4223,3.59199 1.21049,7.71016 1.53501,8.02012 1.34107,9.98757 -0.98449,9.98757 -2.16275,0 -2.36885,-0.62882 -4.51224,-13.76678 -1.8769,-11.50447 -2.34256,-12.7832 -10.8266,-29.73032 l -8.86535,-17.70878 -10.21866,11.51704 c -9.88505,11.14105 -10.20059,11.64227 -9.66513,15.35294 0.30444,2.10975 1.20693,16.2109 2.00554,31.3359 0.7986,15.125 1.90439,35.6 2.45731,45.5 0.55291,9.9 1.45214,27.45 1.99829,39 2.09452,44.29472 5.00466,98.26245 5.61959,104.21358 l 0.64204,6.21357 31.63741,23.03188 c 17.40057,12.66754 41.0874,29.93616 52.6374,38.37473 11.55,8.43857 36.75,26.82124 56,40.85038 24.81277,18.08321 35.09301,26.13453 35.31955,27.66169 0.22079,1.48838 -0.20754,2.15417 -1.38584,2.15417 -1.89989,0 -3.99046,-1.46808 -51.43371,-36.11875 -32.90736,-24.03424 -76.93533,-56.17452 -108.47188,-79.18413 -8.78453,-6.40935 -16.28546,-11.32571 -16.66873,-10.92524 -0.38327,0.40047 -3.71633,6.34204 -7.40681,13.2035 -6.179,11.48821 -6.60086,12.6553 -5.33127,14.74907 0.75828,1.25053 9.02323,12.51161 18.36656,25.02462 9.34333,12.51301 31.73062,42.55093 49.74953,66.75093 18.01892,24.2 40.18688,53.96181 49.26213,66.13735 9.07526,12.17554 16.50047,22.86304 16.50047,23.75 0,2.27775 -4.23552,2.06643 -5.70375,-0.28458 -0.65166,-1.04348 -11.69729,-16.00598 -24.54584,-33.25 -12.84854,-17.24402 -29.38404,-39.45277 -36.74554,-49.35277 -7.3615,-9.9 -20.41791,-27.45 -29.01423,-39 -8.59633,-11.55 -21.70645,-29.17104 -29.1336,-39.15787 l -13.5039,-18.15786 -2.68488,3.36484 -2.68487,3.36485 12.39753,25.29302 c 47.07003,96.03066 42.84077,88.04275 64.74903,122.29302 11.25788,17.6 24.27163,37.95709 28.91946,45.23797 4.64782,7.28088 10.47559,16.39773 12.95059,20.25967 21.95279,34.25461 26.13879,41.19828 25.63225,42.51831 -1.22362,3.1887 -3.77611,1.12145 -9.33806,-7.56285 z M 387.32033,384.54731 c -11.45532,-4.07253 -14.25,-5.43327 -14.25,-6.93834 0,-2.74205 1.82712,-2.42915 18.74903,3.21075 12.59651,4.19829 15.25097,5.41665 15.25097,7 0,3.00386 -3.92543,2.35345 -19.75,-3.27241 z M 227.46239,132.73672 c -3.86497,-20.01235 -2.94345,-20.21777 -0.15244,-19.81955 1.90055,0.27116 2.34992,1.1523 2.96791,5.81955 3.16506,23.90362 4.04151,30.18011 5.95022,30.67925 2.81505,0.73615 7.18541,4.11299 3.81276,4.32127 -2.93028,-0.64198 -16.48662,-1.56226 -15.67241,-4.25017 0.8142,-2.68791 4.85418,-0.36702 5.14994,-1.42451 1.05754,-3.78131 -1.70974,-13.55694 -2.05598,-15.32584 z"
       id="path3002"
       inkscape:connector-curvature="0"
       sodipodi:nodetypes="ssssssssscssssssscssssssssssssscccssssscssscscssscccssssssscscsscssssssssssssssssssscssssssssssssssssssscssscsscsssscsssscsscsssssssscssssscccscsssssscsscscsscsssssssssssssssssssssscsssscsssscsscscsssscsssscsssssssssssssssszsccsssscsssscssssssssssssssssssssscssssssssssssssscssssssssssssccccsssssssscssssssssssssssssssssssssssscccssssscssscscsssscscsscsscssssscscscssssssscsssssssssssscscscccsscssssssssscsssssscssssssssssssssssssscccssssssssssscsssczsc" />
  </g>
</svg>
